<svg xmlns="http://www.w3.org/2000/svg" width="35" height="25" viewBox="0 0 35 25">
  <g id="atm" transform="translate(-361 -592)">
    <rect id="Rectangle_1297" data-name="Rectangle 1297" width="35" height="25" transform="translate(361 592)" fill="none"/>
    <g id="Group_9678" data-name="Group 9678" transform="translate(9 -54)">
      <path id="Path_8693" data-name="Path 8693" d="M-4798.216-506.6q-3.719,0-7.437,0h-13.771a3.07,3.07,0,0,0-3.236,3.24q-.007,6.419,0,12.838a3.068,3.068,0,0,0,3.239,3.238h21.165a3.068,3.068,0,0,0,3.257-3.22q.01-6.44,0-12.882A3.082,3.082,0,0,0-4798.216-506.6Zm-23.033,7.691c0-.081.007-.162.014-.25l0-.037h24.8l0,.017a1.148,1.148,0,0,1,.02.185l0,1.649c0,2.283,0,4.566,0,6.85a1.647,1.647,0,0,1-1.2,1.723,2.5,2.5,0,0,1-.656.061q-10.558.005-21.116,0a1.653,1.653,0,0,1-1.858-1.832q-.011-3.246,0-6.494Zm24.824-3.875c0,.111-.005.223-.007.336h-24.839c.008-.142.012-.284.015-.424a6.166,6.166,0,0,1,.1-1.15,1.529,1.529,0,0,1,1.487-1.147c.119,0,.236-.006.354-.006h3.248q8.848,0,17.69,0a2.739,2.739,0,0,1,.818.088,1.509,1.509,0,0,1,1.119,1.387A8.667,8.667,0,0,1-4796.425-502.787Z" transform="translate(5178.664 1155.605)" fill="#3580ff"/>
      <path id="Path_8694" data-name="Path 8694" d="M-4810.56-498.655h-8.342v2.208h8.342Z" transform="translate(5179.395 1161.999)" fill="#3580ff"/>
      <path id="Path_8736" data-name="Path 8736" d="M-4816.693-498.655h-2.209v2.208h2.209Z" transform="translate(5189.395 1161.999)" fill="#3580ff"/>
    </g>
  </g>
</svg>
