<svg xmlns="http://www.w3.org/2000/svg" width="15.412" height="16.401" viewBox="0 0 15.412 16.401">
  <path id="cart-icon" d="M-497.074-4231.828a1.823,1.823,0,0,1,1.815-1.828,1.823,1.823,0,0,1,1.815,1.828,1.823,1.823,0,0,1-1.815,1.827A1.823,1.823,0,0,1-497.074-4231.828Zm1.111,0a.707.707,0,0,0,.7.708.706.706,0,0,0,.7-.708.707.707,0,0,0-.7-.709A.707.707,0,0,0-495.963-4231.828Zm-7.7,0a1.823,1.823,0,0,1,1.815-1.828,1.823,1.823,0,0,1,1.815,1.828,1.823,1.823,0,0,1-1.815,1.827A1.823,1.823,0,0,1-503.667-4231.828Zm1.111,0a.707.707,0,0,0,.7.708.707.707,0,0,0,.7-.708.707.707,0,0,0-.7-.709A.707.707,0,0,0-502.556-4231.828Zm-.093-2.387a.556.556,0,0,1-.548-.469l-1.6-9.9-1.74-.305a.559.559,0,0,1-.452-.647.555.555,0,0,1,.643-.455l2.13.373a.557.557,0,0,1,.453.461l.413,2.551h10.8a.554.554,0,0,1,.449.23.563.563,0,0,1,.08.5l-1.5,4.7a.557.557,0,0,1-.529.388h-8.356l.236,1.454H-494a.557.557,0,0,1,.556.559.557.557,0,0,1-.556.56Zm8.188-3.692,1.143-3.58h-9.854l.58,3.58Z" transform="translate(507.208 4246.202)" fill="#3580ff" stroke="#3580ff" stroke-width="0.4"/>
</svg>
