<svg xmlns="http://www.w3.org/2000/svg" width="33" height="25" viewBox="0 0 33 25">
  <g id="cash" transform="translate(-1053 -592)">
    <rect id="Rectangle_1301" data-name="Rectangle 1301" width="33" height="25" transform="translate(1053 592)" fill="none"/>
    <g id="Group_9683" data-name="Group 9683" transform="translate(-0.501 -55.5)">
      <g id="Group_8516" data-name="Group 8516" transform="translate(1057.501 650.5)">
        <path id="Path_8695" data-name="Path 8695" d="M26,81.973a1.58,1.58,0,0,0-1.544-1.608l-20.519,0h0a1.5,1.5,0,0,0-1.091.471,1.631,1.631,0,0,0-.452,1.137v.92H1.543a1.5,1.5,0,0,0-1.091.471A1.631,1.631,0,0,0,0,84.5L0,97.334a1.58,1.58,0,0,0,1.544,1.608l20.519,0h0a1.5,1.5,0,0,0,1.091-.471,1.631,1.631,0,0,0,.452-1.137v-.92h.846a1.5,1.5,0,0,0,1.091-.471A1.631,1.631,0,0,0,26,94.808ZM22.44,97.726a.513.513,0,0,1-.373.161h0l-20.519,0a.541.541,0,0,1-.529-.551l0-12.835a.558.558,0,0,1,.154-.389.513.513,0,0,1,.373-.161h0l20.519,0a.541.541,0,0,1,.529.551l0,12.835A.558.558,0,0,1,22.44,97.726ZM24.829,95.2a.513.513,0,0,1-.373.161H23.61l0-10.857a1.58,1.58,0,0,0-1.544-1.608l-18.659,0V81.97a.558.558,0,0,1,.154-.389.513.513,0,0,1,.373-.161h0l20.519,0a.541.541,0,0,1,.529.551l0,12.835a.558.558,0,0,1-.154.389Z" transform="translate(0 -80.363)" fill="#3580ff" stroke="#3580ff" stroke-width="0.2"/>
      </g>
      <g id="Group_8518" data-name="Group 8518" transform="translate(1062.611 657.295)">
        <g id="Group_8517" data-name="Group 8517" transform="translate(0 0)">
          <path id="Path_8697" data-name="Path 8697" d="M194.732,212.16l-.212-.079v-1.55a.68.68,0,0,1,.337.235.5.5,0,0,0,.707.129.543.543,0,0,0,.124-.737,1.775,1.775,0,0,0-1.168-.716v-.082a.508.508,0,1,0-1.016,0v.121q-.1.024-.2.056a1.709,1.709,0,0,0-1.126,1.509,1.613,1.613,0,0,0,.939,1.6c.086.042.22.1.39.17v1.868a1.19,1.19,0,0,1-.573-.376.494.494,0,0,0-.714-.08.544.544,0,0,0-.077.744,2.3,2.3,0,0,0,1.364.8v.047a.508.508,0,1,0,1.016,0v-.007a1.747,1.747,0,0,0,1.6-1.523A2.046,2.046,0,0,0,194.732,212.16Zm-1.543-1.034a.691.691,0,0,1,.316-.534v1.074A.544.544,0,0,1,193.189,211.126Zm1.928,3.032a.7.7,0,0,1-.6.582v-1.528A.966.966,0,0,1,195.116,214.158Z" transform="translate(-187.387 -208.833)" fill="#3580ff" stroke="#3580ff" stroke-width="0.2"/>
          <path id="Path_8698" data-name="Path 8698" d="M315.216,270.52h-1.659a.529.529,0,0,0,0,1.058h1.659a.529.529,0,0,0,0-1.058Z" transform="translate(-302.262 -267.257)" fill="#3580ff" stroke="#3580ff" stroke-width="0.2"/>
          <path id="Path_8699" data-name="Path 8699" d="M102.791,270.52h-1.66a.529.529,0,0,0,0,1.058h1.66a.529.529,0,0,0,0-1.058Z" transform="translate(-100.624 -267.257)" fill="#3580ff" stroke="#3580ff" stroke-width="0.2"/>
        </g>
      </g>
    </g>
  </g>
</svg>
