<svg xmlns="http://www.w3.org/2000/svg" width="16.524" height="14.301" viewBox="0 0 16.524 14.301">
  <path id="company-icon" d="M1145.626,807.889v-1.026h.837c.258,0,.258,0,.258-.252q0-5.048,0-10.1c0-.1,0-.206,0-.308a.528.528,0,0,1,.451-.57l6.261-1.687c.07-.019.14-.039.211-.051a.513.513,0,0,1,.629.488c.015.615,0,1.231,0,1.861h-1.041v-1.162l-1.81.484c-1.16.312-2.32.627-3.481.933-.132.035-.187.079-.186.225q.007,4.958,0,9.915c0,.174.047.221.221.221,1.686-.006,3.371,0,5.057,0h.193v-.255q0-4.323,0-8.646c0-.463.189-.654.644-.655l6.272-.005a.535.535,0,0,1,.607.6q0,3,0,6c0,.053-.006.107-.011.186-.319,0-.63,0-.941,0-.03,0-.079-.066-.084-.105a2.838,2.838,0,0,1-.006-.326q0-2.52,0-5.039v-.248h-5.421v8.5h7.557v1.029Z" transform="translate(-1145.476 -793.738)" fill="#3580ff" stroke="#3580ff" stroke-miterlimit="10" stroke-width="0.3"/>
</svg>
