<svg xmlns="http://www.w3.org/2000/svg" width="16.4" height="16.399" viewBox="0 0 16.4 16.399">
  <g id="copyright" transform="translate(-853.8 -772.3)">
    <path id="Path_8591" data-name="Path 8591" d="M-135.231-366.717a8.015,8.015,0,0,1-7.988-8.079,8.02,8.02,0,0,1,8.012-7.92,8.012,8.012,0,0,1,7.987,8.079A8.018,8.018,0,0,1-135.231-366.717Zm.013-1.247a6.746,6.746,0,0,0,6.75-6.753,6.744,6.744,0,0,0-6.753-6.75,6.745,6.745,0,0,0-6.75,6.753A6.747,6.747,0,0,0-135.217-367.964Z" transform="translate(997.219 1155.216)" fill="#3580ff" stroke="#3580ff" stroke-miterlimit="10" stroke-width="0.4"/>
    <path id="Path_8719" data-name="Path 8719" d="M87.8,83.309a3.082,3.082,0,1,1,0-3.113l.071.123h2.07l-.124-.333a5,5,0,1,0,0,3.534l.124-.333h-2.07Z" transform="translate(776.981 698.982)" fill="#3580ff"/>
  </g>
</svg>
