<svg xmlns="http://www.w3.org/2000/svg" width="28.848" height="20" viewBox="0 0 28.848 20">
  <path id="delivery" d="M-5714.727-4228.7h-5.4a3.643,3.643,0,0,1-3.514,2.7,3.643,3.643,0,0,1-3.513-2.7h-2.365a.908.908,0,0,1-.909-.909.909.909,0,0,1,.909-.909h2.35a3.644,3.644,0,0,1,3.529-2.758,3.645,3.645,0,0,1,3.529,2.758h5.366a3.643,3.643,0,0,1,3.529-2.758,3.643,3.643,0,0,1,3.529,2.758h1.713v-4.688l-1.324-1.706h-7.07a.908.908,0,0,1-.909-.909v-6.363h-14.241a.908.908,0,0,1-.909-.91.909.909,0,0,1,.909-.909h15.15a.91.91,0,0,1,.91.909v.91h3.879a.909.909,0,0,1,.812.5l2.728,5.424h0l1.7,2.184a.914.914,0,0,1,.191.558v5.908a.909.909,0,0,1-.91.909h-2.637a3.643,3.643,0,0,1-3.514,2.7A3.643,3.643,0,0,1-5714.727-4228.7Zm1.695-.938a1.821,1.821,0,0,0,1.819,1.819,1.821,1.821,0,0,0,1.818-1.765c0-.008,0-.016,0-.024s0-.029,0-.042a1.821,1.821,0,0,0-1.819-1.806A1.82,1.82,0,0,0-5713.032-4229.637Zm-12.424,0a1.822,1.822,0,0,0,1.819,1.819,1.821,1.821,0,0,0,1.819-1.819,1.821,1.821,0,0,0-1.819-1.819A1.821,1.821,0,0,0-5725.456-4229.637Zm12-9.09h5.146l-1.828-3.637h-3.318Zm-17.151,5.424a.908.908,0,0,1-.908-.91.909.909,0,0,1,.908-.909h4.182a.91.91,0,0,1,.909.909.91.91,0,0,1-.909.91Zm-1.484-3.577a.909.909,0,0,1-.91-.909.91.91,0,0,1,.91-.909h7.756a.909.909,0,0,1,.909.909.908.908,0,0,1-.909.909Zm1.484-3.575a.908.908,0,0,1-.908-.909.909.909,0,0,1,.908-.909h7.758a.909.909,0,0,1,.909.909.908.908,0,0,1-.909.909Z" transform="translate(5733 4246)" fill="#3580ff"/>
</svg>
