<svg xmlns="http://www.w3.org/2000/svg" width="16" height="16" viewBox="0 0 16 16">
  <path id="email-icon" d="M-819.673-90.706c.011-.049.021-.094.033-.139a.777.777,0,0,1,.848-.6.766.766,0,0,1,.681.787c0,1.3,0,2.6,0,3.9,0,.294-.006.589,0,.883a1.157,1.157,0,0,0,1.657,1.009,1.088,1.088,0,0,0,.58-.658,6.442,6.442,0,0,0-2.481-7.385,6.454,6.454,0,0,0-9.341,2.333,6.409,6.409,0,0,0,2.047,8.274,6.317,6.317,0,0,0,6.9.278.9.9,0,0,1,.631-.141.78.78,0,0,1,.619.631.766.766,0,0,1-.379.8,7.51,7.51,0,0,1-3.074,1.065,7.86,7.86,0,0,1-7.232-2.894,7.5,7.5,0,0,1-1.766-4.268,7.8,7.8,0,0,1,2.834-6.929,7.555,7.555,0,0,1,4.277-1.807,7.812,7.812,0,0,1,6.405,2.2,7.754,7.754,0,0,1,2.409,5.012,8,8,0,0,1-.334,3.178,2.683,2.683,0,0,1-2.353,1.961,2.717,2.717,0,0,1-2.628-1.426c-.012-.021-.026-.041-.048-.076a3.886,3.886,0,0,1-3.4.913,3.731,3.731,0,0,1-2.209-1.336,3.852,3.852,0,0,1,.045-4.946A3.912,3.912,0,0,1-819.673-90.706Zm-4.63,3.114a2.325,2.325,0,0,0,2.321,2.317,2.331,2.331,0,0,0,2.322-2.3,2.326,2.326,0,0,0-2.3-2.335A2.325,2.325,0,0,0-824.3-87.592Z" transform="translate(829.98 95.621)" fill="#3580ff"/>
</svg>
