<svg xmlns="http://www.w3.org/2000/svg" xmlns:xlink="http://www.w3.org/1999/xlink" width="68" height="68" viewBox="0 0 68 68">
  <defs>
    <filter id="Ellipse_68" x="0" y="0" width="68" height="68" filterUnits="userSpaceOnUse">
      <feOffset dy="3" input="SourceAlpha"/>
      <feGaussianBlur stdDeviation="3" result="blur"/>
      <feFlood flood-color="#15489b" flood-opacity="0.102"/>
      <feComposite operator="in" in2="blur"/>
      <feComposite in="SourceGraphic"/>
    </filter>
  </defs>
  <g id="fb" transform="translate(-921 -7512)">
    <g transform="matrix(1, 0, 0, 1, 921, 7512)" filter="url(#Ellipse_68)">
      <circle id="Ellipse_68-2" data-name="Ellipse 68" cx="25" cy="25" r="25" transform="translate(9 6)" fill="#fff" opacity="0.1"/>
    </g>
    <path id="facebook" d="M8.914,24H5.071a1.165,1.165,0,0,1-1.164-1.164V14.167H1.664A1.166,1.166,0,0,1,.5,13V9.288A1.165,1.165,0,0,1,1.664,8.124H3.906V6.264A6.334,6.334,0,0,1,5.581,1.726,6.032,6.032,0,0,1,10.029,0L12.96,0a1.166,1.166,0,0,1,1.162,1.164V4.618a1.165,1.165,0,0,1-1.164,1.164H10.985c-.6,0-.755.121-.788.158-.054.061-.118.235-.118.714v1.47H12.81a1.183,1.183,0,0,1,.576.146,1.168,1.168,0,0,1,.6,1.018V13a1.165,1.165,0,0,1-1.164,1.164H10.078v8.669A1.166,1.166,0,0,1,8.914,24Zm-3.6-1.407H8.671V13.537a.778.778,0,0,1,.777-.777h3.128V9.531H9.448a.778.778,0,0,1-.777-.777v-2.1a2.4,2.4,0,0,1,.471-1.645,2.385,2.385,0,0,1,1.842-.634h1.731V1.411l-2.687,0c-2.907,0-4.714,1.861-4.714,4.857v2.49a.778.778,0,0,1-.777.777H1.907V12.76H4.536a.778.778,0,0,1,.777.777ZM12.957,1.412h0Zm0,0" transform="translate(947.5 7531)" fill="#fff"/>
  </g>
</svg>
