<svg xmlns="http://www.w3.org/2000/svg" xmlns:xlink="http://www.w3.org/1999/xlink" width="68" height="68" viewBox="0 0 68 68">
  <defs>
    <filter id="Ellipse_70" x="0" y="0" width="68" height="68" filterUnits="userSpaceOnUse">
      <feOffset dy="3" input="SourceAlpha"/>
      <feGaussianBlur stdDeviation="3" result="blur"/>
      <feFlood flood-color="#15489b" flood-opacity="0.102"/>
      <feComposite operator="in" in2="blur"/>
      <feComposite in="SourceGraphic"/>
    </filter>
  </defs>
  <g id="finish" transform="translate(9 6)">
    <g transform="matrix(1, 0, 0, 1, -9, -6)" filter="url(#Ellipse_70)">
      <circle id="Ellipse_70-2" data-name="Ellipse 70" cx="25" cy="25" r="25" transform="translate(9 6)" fill="#fff"/>
    </g>
    <path id="Union_229" data-name="Union 229" d="M-16254-4234a12.014,12.014,0,0,1,12-12,12.013,12.013,0,0,1,12,12,12.013,12.013,0,0,1-12,12A12.014,12.014,0,0,1-16254-4234Zm1.968,0a10.044,10.044,0,0,0,10.032,10.033,10.044,10.044,0,0,0,10.033-10.033,10.045,10.045,0,0,0-10.033-10.033A10.044,10.044,0,0,0-16252.034-4234Zm7.4,4.606-3.953-3.954a.984.984,0,0,1,0-1.391.984.984,0,0,1,1.392,0l3.257,3.257,7.125-7.125a.984.984,0,0,1,1.392,0,.984.984,0,0,1,0,1.391l-7.821,7.821a.979.979,0,0,1-.7.288A.98.98,0,0,1-16244.631-4229.394Z" transform="translate(16267.002 4259)" fill="#3580ff"/>
  </g>
</svg>
