<svg xmlns="http://www.w3.org/2000/svg" xmlns:xlink="http://www.w3.org/1999/xlink" width="68" height="68" viewBox="0 0 68 68">
  <defs>
    <filter id="Ellipse_70" x="0" y="0" width="68" height="68" filterUnits="userSpaceOnUse">
      <feOffset dy="3" input="SourceAlpha"/>
      <feGaussianBlur stdDeviation="3" result="blur"/>
      <feFlood flood-color="#15489b" flood-opacity="0.102"/>
      <feComposite operator="in" in2="blur"/>
      <feComposite in="SourceGraphic"/>
    </filter>
  </defs>
  <g id="finish-active" transform="translate(9 6)">
    <g transform="matrix(1, 0, 0, 1, -9, -6)" filter="url(#Ellipse_70)">
      <circle id="Ellipse_70-2" data-name="Ellipse 70" cx="25" cy="25" r="25" transform="translate(9 6)" fill="#3580ff"/>
    </g>
    <path id="Subtraction_10" data-name="Subtraction 10" d="M-15291-4390a11.921,11.921,0,0,1-8.486-3.515A11.924,11.924,0,0,1-15303-4402a11.917,11.917,0,0,1,3.515-8.484A11.928,11.928,0,0,1-15291-4414a11.922,11.922,0,0,1,8.483,3.513A11.917,11.917,0,0,1-15279-4402a11.924,11.924,0,0,1-3.515,8.487A11.914,11.914,0,0,1-15291-4390Zm-4.493-14.176h0l-1.5,1.509,4.873,4.878,7.7-7.7-1.509-1.51-6.2,6.195-3.368-3.368Z" transform="translate(15316.001 4426.998)" fill="#fff"/>
  </g>
</svg>
