<svg xmlns="http://www.w3.org/2000/svg" width="23.497" height="22" viewBox="0 0 23.497 22">
  <g id="gift" transform="translate(0 -16.314)">
    <path id="Path_8611" data-name="Path 8611" d="M22.029,22.16H17.382A5.706,5.706,0,0,0,18.2,21.5a3.072,3.072,0,0,0,0-4.321,3.1,3.1,0,0,0-4.307,0c-.636.639-2.326,3.24-2.093,4.977H11.7c.232-1.737-1.457-4.338-2.093-4.977a3.1,3.1,0,0,0-4.307,0,3.074,3.074,0,0,0,0,4.321,5.812,5.812,0,0,0,.821.656H1.469A1.471,1.471,0,0,0,0,23.628V27.3a.735.735,0,0,0,.734.734h.734v8.812a1.471,1.471,0,0,0,1.469,1.469H20.56a1.471,1.471,0,0,0,1.469-1.469V28.034h.734A.735.735,0,0,0,23.5,27.3V23.628A1.471,1.471,0,0,0,22.029,22.16ZM6.337,18.218a1.565,1.565,0,0,1,2.225,0c.99,1,1.974,3.539,1.632,3.893a.484.484,0,0,1-.272.048,7.221,7.221,0,0,1-3.585-1.692A1.6,1.6,0,0,1,6.337,18.218Zm4.677,18.628H2.937V28.034h8.077Zm0-10.28H1.469V23.628h9.546Zm3.921-8.347a1.582,1.582,0,0,1,2.225,2.25,7.221,7.221,0,0,1-3.585,1.692.482.482,0,0,1-.273-.048C12.962,21.757,13.946,19.214,14.936,18.218ZM20.56,36.845H12.483V28.034H20.56Zm1.469-10.28H12.483V23.628h9.546Z" fill="#3580ff"/>
  </g>
</svg>
