<svg xmlns="http://www.w3.org/2000/svg" width="12.45" height="14.2" viewBox="0 0 12.45 14.2">
  <path id="icon-body" d="M11.375,14V4.138a.878.878,0,0,0-.7-.857L7,2.546V0h.875V1.829l2.968.593A1.755,1.755,0,0,1,12.25,4.138V14Zm-1.75,0v-.376l-.887-3.105.887-4.437V5.687H10.5l-.009.523-.854,4.271.863,3.081V14ZM1.75,14l.017-.557.846-2.961L1.75,6.125V5.687h.875v.394l.887,4.437-.887,3.105V14ZM0,14V4.138A1.755,1.755,0,0,1,1.407,2.422l2.968-.593V0H5.25V2.546l-3.671.735a.878.878,0,0,0-.7.857V14Zm5.687-2.625V10.5h.875v.875Zm0-1.75V8.75h.875v.875Zm0-1.75V3.5h.875V7.875Z" transform="translate(0.1 0.1)" fill="#3580ff" stroke="#3580ff" stroke-width="0.2"/>
</svg>
