<svg xmlns="http://www.w3.org/2000/svg" width="14.128" height="14.1" viewBox="0 0 14.128 14.1">
  <path id="icon-sunbathing" d="M9894.413-9a.412.412,0,0,1-.412-.412v-9.614A3.978,3.978,0,0,1,9897.975-23a3.973,3.973,0,0,1,3.636,2.373l.271.615a2.386,2.386,0,0,1,2.558,1.391l.077.173a1.1,1.1,0,0,1,1.173.638l.124.28a1.218,1.218,0,0,1-.616,1.607l-4.632,2.062a1.216,1.216,0,0,1-1.606-.617l-.125-.28a1.1,1.1,0,0,1,.31-1.3l-.076-.173a2.388,2.388,0,0,1,.574-2.743l-.29-.66a1.5,1.5,0,0,0-1.376-.9,1.5,1.5,0,0,0-1.5,1.5v9.614a.412.412,0,0,1-.412.412Zm.411-10.026v9.2h.824v-9.2a2.329,2.329,0,0,1,2.326-2.327,2.326,2.326,0,0,1,2.129,1.39l.24.546.752-.335-.238-.543a3.151,3.151,0,0,0-2.883-1.881A3.154,3.154,0,0,0,9894.824-19.025Zm9.75,1.412-4.85,2.159a.275.275,0,0,0-.14.363l.125.28a.393.393,0,0,0,.52.2l4.632-2.062a.394.394,0,0,0,.2-.52l-.124-.28a.276.276,0,0,0-.252-.163A.269.269,0,0,0,9904.574-17.614Zm-2.961-1.467-1,.446a1.565,1.565,0,0,0-.795,2.072l.062.138,3.868-1.722-.062-.138a1.566,1.566,0,0,0-1.43-.933A1.591,1.591,0,0,0,9901.613-19.081Zm-.635,9.238-.021-.411a.412.412,0,0,1,.392-.431.413.413,0,0,1,.432.391l.02.411a.412.412,0,0,1-.391.431h-.021A.412.412,0,0,1,9900.979-9.842Zm2.083-.815-.109-.371a.411.411,0,0,1,.277-.512.412.412,0,0,1,.512.278l.11.371a.412.412,0,0,1-.278.512.41.41,0,0,1-.117.017A.413.413,0,0,1,9903.062-10.657Zm2.109-.816-.2-.331a.412.412,0,0,1,.14-.565.412.412,0,0,1,.565.14l.2.331a.412.412,0,0,1-.141.565.408.408,0,0,1-.212.059A.411.411,0,0,1,9905.171-11.474Zm-4.123-.884-.028-.4a.412.412,0,0,1,.383-.439.411.411,0,0,1,.438.382l.028.4a.413.413,0,0,1-.383.439h-.028A.411.411,0,0,1,9901.048-12.358Zm6.25.05-.29-.292a.412.412,0,0,1,0-.582.411.411,0,0,1,.582,0l.29.292a.412.412,0,0,1,0,.582.41.41,0,0,1-.29.12A.41.41,0,0,1,9907.3-12.308Zm-4.108-.842-.15-.342a.412.412,0,0,1,.21-.543.412.412,0,0,1,.543.211l.151.342a.412.412,0,0,1-.211.543.408.408,0,0,1-.166.035A.412.412,0,0,1,9903.189-13.151Zm2.188-.813-.274-.288a.412.412,0,0,1,.014-.582.412.412,0,0,1,.582.014l.274.288a.412.412,0,0,1-.014.582.41.41,0,0,1-.284.114A.411.411,0,0,1,9905.377-13.963Z" transform="translate(-9893.951 23.049)" fill="#3580ff" stroke="#3580ff" stroke-width="0.1"/>
</svg>
