<svg xmlns="http://www.w3.org/2000/svg" width="14.112" height="14.1" viewBox="0 0 14.112 14.1">
  <path id="icon-sunny" d="M9904.34-9a1.376,1.376,0,0,1-1.437-1.436c0-.443-.015-.886.006-1.328a7.085,7.085,0,0,0-.2-1.324c-.128-.907-.272-1.812-.372-2.722a53.373,53.373,0,0,1-.263-6.272c0-.292.014-.583.021-.875a.206.206,0,0,1,.019-.042h5.851c.009.189.022.374.025.56.028,1.918-.022,3.833-.174,5.746a31.713,31.713,0,0,1-.626,4.434,1.352,1.352,0,0,0-.021.3c0,.5,0,1,0,1.5A1.374,1.374,0,0,1,9905.7-9h-1.359Zm-.34-2.545c0,.375,0,.75,0,1.125a.287.287,0,0,0,.327.325q.712,0,1.423,0a.29.29,0,0,0,.328-.327c0-.38,0-.761,0-1.141a1.008,1.008,0,0,0-.013-.112h-2.055C9904.006-11.627,9904-11.587,9904-11.546Zm-.771-7.245c.056,1.364.15,2.726.337,4.078.084.608.2,1.212.307,1.816.008.044.068.112.1.112.729.007,1.459,0,2.214,0a47.88,47.88,0,0,0,.718-9.119h-3.729v1.055h2.616v1.1h-2.569C9903.227-19.415,9903.215-19.1,9903.229-18.791Zm-3.352,9.782v-1.626h1.074v1.626Zm-3.164-1.319.858-1.4.934.572-.862,1.4Zm1.135-2.8a4.225,4.225,0,0,1-.642-4.838,4.216,4.216,0,0,1,3.794-2.29v1.069a3.162,3.162,0,0,0-2.691,1.5,3.006,3.006,0,0,0-.463,2.076,3.091,3.091,0,0,0,1.307,2.187,3.173,3.173,0,0,0,2.49.533c.066.366.13.71.193,1.052a3.675,3.675,0,0,1-.863.1A4.243,4.243,0,0,1,9897.848-13.125Zm-3.271.012,1.42-.82.548.946-1.42.821C9894.941-12.483,9894.763-12.791,9894.576-13.113ZM9894-15.466V-16.54h1.624v1.074Zm.607-3.594c.192-.315.379-.619.57-.933l1.4.856c-.2.32-.378.619-.57.933Zm2.246-2.731.8-.463c.044-.026.091-.047.151-.078l.817,1.412-.946.549Zm3.021.408v-1.611h1.08v1.611Z" transform="translate(-9893.95 23.05)" fill="#3580ff" stroke="#3580ff" stroke-miterlimit="10" stroke-width="0.1"/>
</svg>
