<svg xmlns="http://www.w3.org/2000/svg" width="12.671" height="14.199" viewBox="0 0 12.671 14.199">
  <path id="icon-skin" d="M10001.066-10.167a4.907,4.907,0,0,1-1.583-2.573A1.723,1.723,0,0,1,9998-14.446a1.722,1.722,0,0,1,1.345-1.681v-1.985a4.9,4.9,0,0,1,4.891-4.889,4.9,4.9,0,0,1,4.892,4.889v1.985a1.725,1.725,0,0,1,1.345,1.681,1.724,1.724,0,0,1-1.482,1.706,4.893,4.893,0,0,1-1.586,2.573A4.89,4.89,0,0,1,10004.236-9,4.9,4.9,0,0,1,10001.066-10.167Zm-1.51-5.165a.9.9,0,0,0-.736.887.905.905,0,0,0,.9.9h.442l.058.339a4.058,4.058,0,0,0,4.012,3.382,4.061,4.061,0,0,0,4.013-3.382l.058-.339h.442a.9.9,0,0,0,.9-.9.9.9,0,0,0-.9-.9h-.442v-.518a6.134,6.134,0,0,1-2.984-1.957,10.363,10.363,0,0,1-5.155,2.467l-.03.008h-.412A.925.925,0,0,0,9999.557-15.333Zm.61-2.779v1.919a8.718,8.718,0,0,0,4.874-2.525l.376-.482.3.533a4.006,4.006,0,0,0,.773.882,5.463,5.463,0,0,0,1.812,1.055v-1.382a4.075,4.075,0,0,0-4.07-4.07A4.075,4.075,0,0,0,10000.167-18.111Zm5.78,6.567v-.816h.819v.816Zm-4.243,0v-.816h.819v.816Zm3.465-1.455v-.814h.818V-13Zm-2.686,0v-.814h.821V-13Zm4.3-.349v-.816h.819v.816Zm-5.911,0v-.816h.819v.816Z" transform="translate(-9997.901 23.1)" fill="#3580ff" stroke="#3580ff" stroke-width="0.2"/>
</svg>
