<svg xmlns="http://www.w3.org/2000/svg" width="14.121" height="11.306" viewBox="0 0 14.121 11.306">
  <path id="icon-eye" d="M9899.914-11.956a4.477,4.477,0,0,1-1.812-.914.436.436,0,0,1-.016-.607.434.434,0,0,1,.609-.021,3.72,3.72,0,0,0,1.484.722,5.383,5.383,0,0,0,4.047-.779.439.439,0,0,1,.594.155.446.446,0,0,1-.172.587,6.778,6.778,0,0,1-3.437,1.018A5.18,5.18,0,0,1,9899.914-11.956Zm-1.656-2.694a10.624,10.624,0,0,1-2.187-1.469,14.485,14.485,0,0,1-2-2.124.444.444,0,0,1,0-.479,14.477,14.477,0,0,1,2-2.124,10.624,10.624,0,0,1,2.188-1.469,6.262,6.262,0,0,1,2.75-.683,6.2,6.2,0,0,1,2.734.683,10.223,10.223,0,0,1,2.188,1.469,13.52,13.52,0,0,1,2,2.124.444.444,0,0,1,0,.479,13.534,13.534,0,0,1-2,2.124,10.222,10.222,0,0,1-2.187,1.469,6.2,6.2,0,0,1-2.734.683A6.264,6.264,0,0,1,9898.258-14.65Zm-3.187-3.66a13.306,13.306,0,0,0,1.547,1.58,7.172,7.172,0,0,0,4.391,1.942c2.719,0,5.094-2.513,5.922-3.522a17.116,17.116,0,0,0-2.5-.745v.025a3.433,3.433,0,0,1-3.422,3.421,3.423,3.423,0,0,1-3.422-3.421v-.025A16.862,16.862,0,0,0,9895.07-18.31Zm3.344-.906v.186a2.6,2.6,0,0,0,2.594,2.6,2.605,2.605,0,0,0,2.594-2.6v-.186c-.281-.046-.547-.086-.844-.12a1.993,1.993,0,0,1,.031.306,1.791,1.791,0,0,1-1.781,1.779,1.781,1.781,0,0,1-1.781-1.779,1.01,1.01,0,0,1,.031-.306C9898.961-19.3,9898.68-19.262,9898.414-19.216Zm1.719-.2a.813.813,0,0,0-.078.384.953.953,0,0,0,.953.958.963.963,0,0,0,.953-.958.813.813,0,0,0-.078-.384c-.281-.017-.594-.027-.875-.027C9900.711-19.441,9900.414-19.432,9900.133-19.414Zm6.109-.01c-.234-.257-.547-.536-.859-.813a7.167,7.167,0,0,0-4.375-1.942c-2.172,0-4.125,1.595-5.25,2.754a17.689,17.689,0,0,1,5.25-.838A17.566,17.566,0,0,1,9906.242-19.424Z" transform="translate(-9893.939 23.049)" fill="#3580ff" stroke="#3580ff" stroke-miterlimit="10" stroke-width="0.1"/>
</svg>
