<svg xmlns="http://www.w3.org/2000/svg" width="6.489" height="14.213" viewBox="0 0 6.489 14.213">
  <g id="icon-lipstick" transform="translate(-140.9 0.113)">
    <g id="Group_9307" data-name="Group 9307" transform="translate(141 0)">
      <path id="Path_8821" data-name="Path 8821" d="M146.879,7.984h-.137V6.207a.41.41,0,0,0-.41-.41H146.2V1.032a1.033,1.033,0,0,0-1.724-.766l-2.037,1.842a1.034,1.034,0,0,0-.34.766V5.8h-.137a.41.41,0,0,0-.41.41V7.984h-.137a.41.41,0,0,0-.41.41v5.2a.41.41,0,0,0,.41.41h5.469a.41.41,0,0,0,.41-.41v-5.2A.41.41,0,0,0,146.879,7.984Zm-3.9-5.268L145.021.875h0a.212.212,0,0,1,.354.157V5.8h-2.461V2.874h0A.212.212,0,0,1,142.984,2.717Zm-.617,3.9h3.555V7.984h-3.555Zm4.1,6.562H141.82V8.8h4.648Z" transform="translate(-141 0)" fill="#3580ff" stroke="#3580ff" stroke-width="0.2"/>
    </g>
  </g>
</svg>
