<svg xmlns="http://www.w3.org/2000/svg" width="12.921" height="14.325" viewBox="0 0 12.921 14.325">
  <path id="icon-acne" d="M9906.075-9.274a1.8,1.8,0,0,0-1.8-1.8h-2.6a.274.274,0,0,1-.273-.273v-1.364a3.43,3.43,0,0,1-1.094.179,3.405,3.405,0,0,1-1.094-.179v1.364a.274.274,0,0,1-.273.273h-1.37a.273.273,0,0,1-.273-.273.273.273,0,0,1,.273-.273h1.1v-1.331a3.427,3.427,0,0,1-1.783-3v-1.7a.946.946,0,0,1-.376-.363,2.542,2.542,0,0,1-.256-1.942,2.542,2.542,0,0,1,1.192-1.554l1.1-.638a1.719,1.719,0,0,1,.528-.545,1.845,1.845,0,0,1,1.946-.056l2.147,1.24a2.542,2.542,0,0,1,1.192,1.554,2.542,2.542,0,0,1-.256,1.942.946.946,0,0,1-.376.363v1.035a2.231,2.231,0,0,1,2.013,2.218,2.231,2.231,0,0,1-2.229,2.228,2.222,2.222,0,0,1-1.567-.646v1.2h2.327a2.344,2.344,0,0,1,2.342,2.342.273.273,0,0,1-.272.273A.273.273,0,0,1,9906.075-9.274Zm-4.237-5.126a1.684,1.684,0,0,0,1.682,1.682A1.683,1.683,0,0,0,9905.2-14.4a1.683,1.683,0,0,0-1.682-1.682A1.684,1.684,0,0,0,9901.838-14.4Zm-4.027-3.267a.943.943,0,0,1-.376.122v1.595a2.88,2.88,0,0,0,2.877,2.877,2.878,2.878,0,0,0,1.241-.281,2.207,2.207,0,0,1-.262-1.045,2.232,2.232,0,0,1,1.9-2.2v-.942a.943.943,0,0,1-.376-.122l-2.5-1.444Zm1.57-4.57a1.159,1.159,0,0,0-.526,1.011,1.161,1.161,0,0,0,.584.979l3.647,2.106a.4.4,0,0,0,.552-.148,2,2,0,0,0,.2-1.527,2,2,0,0,0-.937-1.222l-2.147-1.24a1.307,1.307,0,0,0-.654-.177A1.307,1.307,0,0,0,9899.381-22.237Zm-1.659,1.2a2,2,0,0,0-.937,1.222,2,2,0,0,0,.2,1.527.4.4,0,0,0,.552.148l2.228-1.286-.6-.346a1.706,1.706,0,0,1-.857-1.437,1.585,1.585,0,0,1,0-.167ZM9894-9.274a2.346,2.346,0,0,1,1.012-1.928.274.274,0,0,1,.381.069.273.273,0,0,1-.069.38,1.8,1.8,0,0,0-.776,1.478.273.273,0,0,1-.273.273A.274.274,0,0,1,9894-9.274Zm2.149-1.876a.275.275,0,0,1-.08-.193.276.276,0,0,1,.08-.193.275.275,0,0,1,.193-.08.275.275,0,0,1,.193.08.276.276,0,0,1,.08.193.276.276,0,0,1-.08.193.274.274,0,0,1-.193.08A.274.274,0,0,1,9896.15-11.15Zm7.8-2.6a.276.276,0,0,1-.08-.193.276.276,0,0,1,.08-.193.275.275,0,0,1,.193-.08.275.275,0,0,1,.193.08.276.276,0,0,1,.08.193.276.276,0,0,1-.08.193.275.275,0,0,1-.193.08A.275.275,0,0,1,9903.951-13.749Zm-1.25,0a.276.276,0,0,1-.08-.193.276.276,0,0,1,.08-.193.277.277,0,0,1,.193-.08.275.275,0,0,1,.193.08.276.276,0,0,1,.08.193.276.276,0,0,1-.08.193.275.275,0,0,1-.193.08A.277.277,0,0,1,9902.7-13.749Zm.616-1.094a.272.272,0,0,1-.08-.193.272.272,0,0,1,.08-.193.275.275,0,0,1,.193-.08.274.274,0,0,1,.192.08.273.273,0,0,1,.081.193.277.277,0,0,1-.081.193.274.274,0,0,1-.192.08A.275.275,0,0,1,9903.317-14.843Zm-3.9-.581a.276.276,0,0,1-.08-.193.276.276,0,0,1,.08-.193.275.275,0,0,1,.193-.08.276.276,0,0,1,.193.08.276.276,0,0,1,.08.193.276.276,0,0,1-.08.193.278.278,0,0,1-.193.08A.275.275,0,0,1,9899.419-15.424Zm-1.094,0a.276.276,0,0,1-.08-.193.276.276,0,0,1,.08-.193.275.275,0,0,1,.193-.08.275.275,0,0,1,.193.08.276.276,0,0,1,.08.193.276.276,0,0,1-.08.193.275.275,0,0,1-.193.08A.275.275,0,0,1,9898.325-15.424Zm2.789-1.421a.274.274,0,0,1,0-.387.273.273,0,0,1,.387,0,.29.29,0,0,0,.41,0,.273.273,0,0,1,.387,0,.274.274,0,0,1,0,.387.833.833,0,0,1-.592.245A.835.835,0,0,1,9901.114-16.845Zm-2.789,0a.274.274,0,0,1,0-.387.273.273,0,0,1,.387,0,.29.29,0,0,0,.41,0,.273.273,0,0,1,.387,0,.274.274,0,0,1,0,.387.835.835,0,0,1-.592.245A.833.833,0,0,1,9898.325-16.845Z" transform="translate(-9893.851 23.175)" fill="#3580ff" stroke="#3580ff" stroke-width="0.3"/>
</svg>
