<svg xmlns="http://www.w3.org/2000/svg" width="13.205" height="14.2" viewBox="0 0 13.205 14.2">
  <path id="icon-fat" d="M9895.125-9a.409.409,0,0,1-.382-.262,9.572,9.572,0,0,1-.736-3,6.266,6.266,0,0,1,1.118-3.862,2.947,2.947,0,0,1,.321-2.513l0-.007a5.76,5.76,0,0,0,.582-3.195c0-.132,0-.257,0-.367a.8.8,0,0,1,.8-.8h7.412a.8.8,0,0,1,.8.811c0,.138-.008.3-.016.462a5.041,5.041,0,0,0,.592,3.084.039.039,0,0,0,0,.008,2.95,2.95,0,0,1,.322,2.513,6.89,6.89,0,0,1,.39,6.841.411.411,0,0,1-.383.264L9895.126-9Zm-.3-3.3a8.064,8.064,0,0,0,.582,2.479l3.621-.006a4.036,4.036,0,0,0-1.388-2.117,5.3,5.3,0,0,0-2.8-1.137A5.465,5.465,0,0,0,9894.826-12.3Zm.16-1.591a6.119,6.119,0,0,1,3.175,1.312,4.818,4.818,0,0,1,1.709,2.75l1.349,0a4.812,4.812,0,0,1,1.708-2.748,6.116,6.116,0,0,1,3.146-1.309,5.691,5.691,0,0,0-.708-1.608,8.866,8.866,0,0,1-4.835,1.425A8.865,8.865,0,0,1,9895.7-15.5,5.688,5.688,0,0,0,9894.986-13.891Zm8.46,1.946a4.034,4.034,0,0,0-1.386,2.112l3.6-.006a7.156,7.156,0,0,0,.559-3.24A5.3,5.3,0,0,0,9903.446-11.945Zm-6.593-9.911a6.526,6.526,0,0,1-.708,3.649,2.126,2.126,0,0,0-.225,1.877,8.1,8.1,0,0,0,4.609,1.438,8.094,8.094,0,0,0,4.609-1.438,2.125,2.125,0,0,0-.225-1.877,5.829,5.829,0,0,1-.717-3.561c.007-.159.014-.3.015-.414h-7.364C9896.849-22.085,9896.852-21.974,9896.854-21.856Zm3.267,4.981v-.681a.41.41,0,0,1,.41-.41.41.41,0,0,1,.41.41v.681a.41.41,0,0,1-.41.41A.41.41,0,0,1,9900.12-16.875Z" transform="translate(-9893.9 23.101)" fill="#3580ff" stroke="#3580ff" stroke-width="0.2"/>
</svg>
