<svg xmlns="http://www.w3.org/2000/svg" width="14.178" height="13.513" viewBox="0 0 14.178 13.513">
  <path id="icon-face" d="M9899.095-10.262a.657.657,0,0,0-.324-.085c-.6,0-1.2,0-1.8,0h-1.107a1.785,1.785,0,0,1-1.841-1.712,20.156,20.156,0,0,1,.374-5.446,7.85,7.85,0,0,1,1.917-3.725,5.706,5.706,0,0,1,3.513-1.71,4.753,4.753,0,0,1,2.571.285,6.468,6.468,0,0,1,.687.422.573.573,0,0,0,.2.093,4.5,4.5,0,0,1,3.045,1.937,8.292,8.292,0,0,1,1.395,3.4,20.852,20.852,0,0,1,.241,4.788,1.788,1.788,0,0,1-1.766,1.667c-.338,0-.674,0-1.012,0h-.476c-.5,0-1.007,0-1.51,0a.631.631,0,0,0-.3.085,3.652,3.652,0,0,1-1.9.577A3.649,3.649,0,0,1,9899.095-10.262Zm-1.761-5.582c.038.353.07.708.137,1.057a6.094,6.094,0,0,0,1.442,3.086,2.615,2.615,0,0,0,4.1.064,6.1,6.1,0,0,0,1.606-4.643,2.421,2.421,0,0,0-1.835-2.3.4.4,0,0,0-.3.032,8.624,8.624,0,0,1-4.671,1.2.47.47,0,0,1-.488-.484.51.51,0,0,1,.5-.5c.523-.042,1.051-.063,1.568-.145a5.816,5.816,0,0,0,2.784-1.06.569.569,0,0,1,.4-.107,3.511,3.511,0,0,1,2.643,1.9,4.266,4.266,0,0,1,.373,2.551,7.984,7.984,0,0,1-1.234,3.482c-.075.113-.155.222-.239.341.76,0,1.5.023,2.239-.01a.741.741,0,0,0,.62-.741,22.556,22.556,0,0,0-.23-4.466,7.172,7.172,0,0,0-1.281-3.12,3.4,3.4,0,0,0-2.521-1.471.562.562,0,0,1-.322-.156,2.186,2.186,0,0,0-1.144-.576,4.9,4.9,0,0,0-5.008,2.043,9.185,9.185,0,0,0-1.423,4.711c-.062.949-.043,1.9-.054,2.855a.844.844,0,0,0,.951.962c.581.006,1.161,0,1.742,0,.051,0,.1-.009.176-.017-.033-.052-.051-.084-.072-.113a7.822,7.822,0,0,1-1.454-4.328.486.486,0,0,1,.456-.539h.034A.513.513,0,0,1,9897.334-15.844Zm4.672.835a.665.665,0,0,1,.656-.67.661.661,0,0,1,.661.664.663.663,0,0,1-.655.667h0A.662.662,0,0,1,9902.006-15.009Zm-3.331,0a.662.662,0,0,1,.653-.672.666.666,0,0,1,.665.662.664.664,0,0,1-.655.67h0A.661.661,0,0,1,9898.675-15.006Z" transform="translate(-9893.914 23.097)" fill="#3580ff" stroke="#3580ff" stroke-miterlimit="10" stroke-width="0.2"/>
</svg>
