<svg xmlns="http://www.w3.org/2000/svg" xmlns:xlink="http://www.w3.org/1999/xlink" width="68" height="68" viewBox="0 0 68 68">
  <defs>
    <filter id="Ellipse_168" x="0" y="0" width="68" height="68" filterUnits="userSpaceOnUse">
      <feOffset dy="3" input="SourceAlpha"/>
      <feGaussianBlur stdDeviation="3" result="blur"/>
      <feFlood flood-color="#15489b" flood-opacity="0.102"/>
      <feComposite operator="in" in2="blur"/>
      <feComposite in="SourceGraphic"/>
    </filter>
  </defs>
  <g id="info-active" transform="translate(9 6)">
    <g transform="matrix(1, 0, 0, 1, -9, -6)" filter="url(#Ellipse_168)">
      <circle id="Ellipse_168-2" data-name="Ellipse 168" cx="25" cy="25" r="25" transform="translate(9 6)" fill="#3580ff"/>
    </g>
    <path id="Union_300" data-name="Union 300" d="M2354.313,1a.939.939,0,0,1-.777-.411l-2.345-3.457a10.437,10.437,0,0,1-5.145-3.661A10.206,10.206,0,0,1,2344-12.694a10.237,10.237,0,0,1,3.019-7.289A10.251,10.251,0,0,1,2354.313-23a10.25,10.25,0,0,1,7.292,3.016,10.234,10.234,0,0,1,3.02,7.29,10.206,10.206,0,0,1-2.046,6.165,10.431,10.431,0,0,1-5.146,3.662L2355.088.589A.937.937,0,0,1,2354.313,1Zm0-15.433c-.6,0-1.021.257-1.021.625v5.045c0,.307.41.637,1.021.637.593,0,1.036-.336,1.036-.637v-5.045C2355.347-14.164,2354.9-14.432,2354.311-14.432Zm0-3.113a1.025,1.025,0,0,0-1.089.943,1.041,1.041,0,0,0,1.089.951,1.031,1.031,0,0,0,1.073-.951A1.028,1.028,0,0,0,2354.314-17.545Z" transform="translate(-2329 36)" fill="#fff"/>
  </g>
</svg>
