<svg xmlns="http://www.w3.org/2000/svg" xmlns:xlink="http://www.w3.org/1999/xlink" width="68" height="68" viewBox="0 0 68 68">
  <defs>
    <filter id="Ellipse_70" x="0" y="0" width="68" height="68" filterUnits="userSpaceOnUse">
      <feOffset dy="3" input="SourceAlpha"/>
      <feGaussianBlur stdDeviation="3" result="blur"/>
      <feFlood flood-color="#15489b" flood-opacity="0.102"/>
      <feComposite operator="in" in2="blur"/>
      <feComposite in="SourceGraphic"/>
    </filter>
  </defs>
  <g id="insta" transform="translate(-1061 -7512)">
    <g transform="matrix(1, 0, 0, 1, 1061, 7512)" filter="url(#Ellipse_70)">
      <circle id="Ellipse_70-2" data-name="Ellipse 70" cx="25" cy="25" r="25" transform="translate(9 6)" fill="#fff" opacity="0.1"/>
    </g>
    <path id="Union_250" data-name="Union 250" d="M9742.051-4390.069a8.8,8.8,0,0,1-2.912-.558,5.911,5.911,0,0,1-2.124-1.383,5.922,5.922,0,0,1-1.388-2.129,8.763,8.763,0,0,1-.559-2.912c-.056-1.28-.07-1.687-.07-4.946s.015-3.666.075-4.951a8.817,8.817,0,0,1,.558-2.912,5.922,5.922,0,0,1,1.384-2.124,5.859,5.859,0,0,1,2.129-1.388,8.771,8.771,0,0,1,2.912-.558c1.28-.057,1.688-.07,4.947-.07s3.667.014,4.952.075a8.8,8.8,0,0,1,2.912.558,5.911,5.911,0,0,1,2.124,1.383,5.857,5.857,0,0,1,1.388,2.128,8.768,8.768,0,0,1,.559,2.912c.057,1.28.061,1.688.061,4.946s-.014,3.667-.07,4.946a8.792,8.792,0,0,1-.558,2.912,6.141,6.141,0,0,1-3.513,3.512,8.765,8.765,0,0,1-2.912.558c-1.279.056-1.687.07-4.947.07S9743.331-4390.013,9742.051-4390.069Zm.113-21.68a6.61,6.61,0,0,0-2.228.413,3.73,3.73,0,0,0-1.379.9,3.649,3.649,0,0,0-.9,1.378,6.565,6.565,0,0,0-.412,2.227c-.057,1.261-.071,1.646-.071,4.848s.015,3.582.071,4.848a6.587,6.587,0,0,0,.412,2.227,3.732,3.732,0,0,0,.9,1.378,3.7,3.7,0,0,0,1.379.9,6.581,6.581,0,0,0,2.228.413c1.261.056,1.646.07,4.849.07s3.583-.014,4.849-.07a6.61,6.61,0,0,0,2.228-.413,3.981,3.981,0,0,0,2.279-2.279,6.584,6.584,0,0,0,.412-2.227c.057-1.266.07-1.641.07-4.843s-.014-3.582-.07-4.848a6.615,6.615,0,0,0-.412-2.227,3.722,3.722,0,0,0-.9-1.378,3.687,3.687,0,0,0-1.378-.9,6.587,6.587,0,0,0-2.228-.413c-1.262-.056-1.642-.07-4.849-.07S9743.43-4411.805,9742.164-4411.749Zm-1.327,9.752a6.167,6.167,0,0,1,6.166-6.165,6.168,6.168,0,0,1,6.167,6.165,6.168,6.168,0,0,1-6.167,6.166A6.167,6.167,0,0,1,9740.837-4402Zm2.166,0a4,4,0,0,0,4,4,4,4,0,0,0,4-4,4,4,0,0,0-4-4A4,4,0,0,0,9743-4402Zm8.971-6.409a1.439,1.439,0,0,1,1.439-1.439,1.439,1.439,0,0,1,1.44,1.439,1.439,1.439,0,0,1-1.44,1.439A1.439,1.439,0,0,1,9751.974-4408.406Z" transform="translate(-8651.998 11944.999)" fill="#fff"/>
  </g>
</svg>
