<svg xmlns="http://www.w3.org/2000/svg" width="16.2" height="16.2" viewBox="0 0 16.2 16.2">
  <g id="internet" transform="translate(0.1 0.1)">
    <path id="Path_8496" data-name="Path 8496" d="M13.657,2.343A8,8,0,0,0,2.343,13.657,8,8,0,0,0,13.657,2.343Zm-.067,9.865a9.975,9.975,0,0,0-1.5-.837,13.442,13.442,0,0,0,.4-2.871h2.491A6.962,6.962,0,0,1,13.59,12.208ZM1.018,8.5H3.509a13.445,13.445,0,0,0,.4,2.871,9.972,9.972,0,0,0-1.5.837A6.962,6.962,0,0,1,1.018,8.5ZM2.41,3.792a9.97,9.97,0,0,0,1.5.837,13.444,13.444,0,0,0-.4,2.871H1.018A6.962,6.962,0,0,1,2.41,3.792Zm8.86-1.331a6.762,6.762,0,0,0-.592-.929,7.024,7.024,0,0,1,2.249,1.5,8.967,8.967,0,0,1-1.13.631A8.982,8.982,0,0,0,11.27,2.461Zm-.405,1.575A8.994,8.994,0,0,1,8,4.5a8.994,8.994,0,0,1-2.864-.463C5.775,2.216,6.832,1,8,1s2.225,1.216,2.864,3.037ZM4.509,7.5A12.534,12.534,0,0,1,4.851,5,9.994,9.994,0,0,0,8,5.5,9.994,9.994,0,0,0,11.149,5a12.532,12.532,0,0,1,.342,2.5Zm6.981,1a12.535,12.535,0,0,1-.342,2.5,10.093,10.093,0,0,0-6.3,0,12.533,12.533,0,0,1-.342-2.5ZM4.73,2.461a8.992,8.992,0,0,0-.528,1.2,8.965,8.965,0,0,1-1.13-.631,7.023,7.023,0,0,1,2.249-1.5A6.761,6.761,0,0,0,4.73,2.461ZM4.2,12.337a8.989,8.989,0,0,0,.528,1.2,6.762,6.762,0,0,0,.592.929,7.024,7.024,0,0,1-2.249-1.5A8.971,8.971,0,0,1,4.2,12.337Zm.933-.373a9.081,9.081,0,0,1,5.729,0C10.225,13.784,9.168,15,8,15S5.775,13.784,5.136,11.964Zm6.134,1.575a8.989,8.989,0,0,0,.528-1.2,8.971,8.971,0,0,1,1.13.631,7.023,7.023,0,0,1-2.249,1.5A6.759,6.759,0,0,0,11.27,13.539ZM12.491,7.5a13.444,13.444,0,0,0-.4-2.871,9.968,9.968,0,0,0,1.5-.837A6.962,6.962,0,0,1,14.982,7.5Z" fill="#3580ff" stroke="#3580ff" stroke-width="0.2"/>
  </g>
</svg>
