<svg xmlns="http://www.w3.org/2000/svg" width="13.439" height="16.4" viewBox="0 0 13.439 16.4">
  <path id="local-icon" d="M-17823.953-4230.2l-4.7-5.52a5.026,5.026,0,0,1-.937-1.548,6.456,6.456,0,0,1,.75-5.953,6.374,6.374,0,0,1,5.313-2.782,6.37,6.37,0,0,1,5.311,2.782,6.462,6.462,0,0,1,.75,5.957,5.1,5.1,0,0,1-.937,1.546l-4.7,5.519a.562.562,0,0,1-.426.2A.559.559,0,0,1-17823.953-4230.2Zm-3.965-12.385a5.339,5.339,0,0,0-.625,4.924,3.982,3.982,0,0,0,.738,1.212l4.277,5.022,4.273-5.02s0,0,0,0a3.98,3.98,0,0,0,.738-1.208,5.351,5.351,0,0,0-.623-4.928,5.269,5.269,0,0,0-4.391-2.3A5.261,5.261,0,0,0-17827.918-4242.583Zm1.258,3.034a3.136,3.136,0,0,1,3.133-3.133,3.137,3.137,0,0,1,3.133,3.133,3.137,3.137,0,0,1-3.133,3.133A3.136,3.136,0,0,1-17826.66-4239.549Zm1.117,0a2.017,2.017,0,0,0,2.016,2.014,2.017,2.017,0,0,0,2.014-2.014,2.017,2.017,0,0,0-2.014-2.014A2.017,2.017,0,0,0-17825.543-4239.549Z" transform="translate(17830.242 4246.201)" fill="#3580ff" stroke="#3580ff" stroke-width="0.4"/>
</svg>
