<svg xmlns="http://www.w3.org/2000/svg" width="71.387" height="51.711" viewBox="0 0 71.387 51.711">
  <path id="miri-logo" d="M68.238,48.688A1.324,1.324,0,1,1,69.565,50,1.305,1.305,0,0,1,68.238,48.688Zm.263,0A1.061,1.061,0,1,0,69.565,47.6,1.058,1.058,0,0,0,68.5,48.688ZM1.364,33.12h0A1.062,1.062,0,0,0,.4,32.5H3.714L10.4,46.287l4.981-11.71a5,5,0,0,0,.549-2.082h3.187a1.064,1.064,0,0,0-1.063,1.064V48.448a1.064,1.064,0,0,0,1.063,1.064h-4.25a1.064,1.064,0,0,0,1.063-1.064V35l-5.143,12.09h0L9.553,50ZM64.807,49.512H61.62a1.064,1.064,0,0,0,1.063-1.064V33.56A1.064,1.064,0,0,0,61.62,32.5h3.188V48.448a1.063,1.063,0,0,0,1.062,1.064Zm-11,0a5.358,5.358,0,0,1-.7-.046c-.109-.014-.215-.032-.32-.053s-.23-.049-.343-.078c-.13-.035-.258-.074-.385-.119a5.325,5.325,0,0,1-3.026-2.684l-.025-.051-.65-1.338-.923-1.9-.79-1.627-.006-.013a1.006,1.006,0,0,0-.157-.233A1.056,1.056,0,0,0,45.685,41H45.7a4.254,4.254,0,0,0,3.542-6.582,2.826,2.826,0,0,0-2.74-1.255H43.557V48.448a1.064,1.064,0,0,0,1.063,1.064h-4.25a1.063,1.063,0,0,0,1.062-1.064V33.56A1.062,1.062,0,0,0,40.369,32.5H47.85a4.253,4.253,0,0,1,2.4,7.734h.006c-.013.01-.027.018-.041.028l-.016.012a5.549,5.549,0,0,1-1.984.81,2.106,2.106,0,0,1,.683.316,1.894,1.894,0,0,1,.262.22,2.071,2.071,0,0,1,.42.582l0,0s0,.009.006.014l2.042,4.208,0,.005c.028.063.058.125.09.186v0a5.317,5.317,0,0,0,.719,1.062,5.311,5.311,0,0,0,2.686,1.664h0a5.266,5.266,0,0,0,1.323.167Zm-22.994,0H27.621a1.063,1.063,0,0,0,1.063-1.064V33.56A1.063,1.063,0,0,0,27.621,32.5h3.188V48.448a1.064,1.064,0,0,0,1.063,1.064Zm-28.872,0H0a1.064,1.064,0,0,0,1.063-1.064V44.194a5.315,5.315,0,0,0,5.312,5.318Zm68.013-.066-.4-.654h-.263v.654h-.228V47.937h.574c.356,0,.532.132.532.429a.392.392,0,0,1-.391.415l.429.665Zm-.661-.848h.273c.193,0,.366-.013.366-.246,0-.186-.169-.221-.329-.221h-.311Zm-47.454-21.1c.119-.194,1.672-1.758,1.942-2.042.432-.453.836-.867,1.035-1.041.522-.456,2.123-2.024,2.44-2.38.14-.158.734-.828,1.365-1.536.388-.534.846-1.06.546-1.563a3.421,3.421,0,0,1-.616-1.17c-.037-.34-.019-.716-.378-.872-.305-.133-.882-.765-.386-.988.142-.064-.47-.468-.611-.684s-.227-.616-.085-.739c.083-.072-.168-.307-.381-.553a.849.849,0,0,1,.053-1.051c.1-.143-.806-.921-.512-1.252.176-.2.265-.307.26-.476-.007-.216-.684-.64-.246-1.38.054-.092-.582-.395-.38-1.114a.277.277,0,0,1,.231-.21,2.7,2.7,0,0,1-.276-1.186c.025-.11.58,0,.61-.113s-.773-.777-.567-1.523c.025-.093.221-.079.38-.065.109.01.2.019.21,0,.025-.058-.741-1.475-.406-1.84.078-.086.237.021.368.127.105.085.192.171.2.157s-.089-.278-.122-.491c0-.018-.005-.036-.008-.054v0h0a.521.521,0,0,1,.06-.363c.191-.282-.292-1.114,0-1.38.162-.149.967.99,1.07.99s-.9-1.6-.36-1.982c.089-.062.284.273.475.608s.37.658.442.612c.12-.075-.343-1.113.017-1.6.157-.212.965,1.768,1.085,1.8S28.813.474,29.384.01c.113-.092.231.438.331,1.049h0a17.3,17.3,0,0,0,.855,3.164c.912,2.635,1.931,3.711,2.554,4.146.176.112.356.2.326-.1a.954.954,0,0,1,.027-.351c.027-.1.143-.047.238.005.066.036.122.072.131.058.022-.037-.376-1.149-.049-1.4.052-.04.129.051.2.141s.171.206.215.118c.117-.233-.166-1.25.1-1.394.064-.035.19.176.312.386s.246.431.292.383c.128-.139-.426-1.157-.028-1.351.065-.032.158.21.249.451s.175.476.228.453c.088-.038-.109-.773.18-1.058.065-.064.155.184.235.433.075.234.142.468.174.442.146-.125.072-1.152.4-.964a13.41,13.41,0,0,1,.254,2.3v0c.024.22.051.428.085.61,0,.015.006.029.008.045.189,1.189.675,3.515,1.806,4.373a1.551,1.551,0,0,0,.675.306,1.572,1.572,0,0,0,.279.028h.092a1.218,1.218,0,0,0,.32-.042h.006a4.367,4.367,0,0,1,.875-.161v0a2.443,2.443,0,0,1,2.323,1.049.652.652,0,0,1,.048.081c0,.011.007.021.011.032a.433.433,0,0,1,.049.159.453.453,0,0,0,.282.362c.3.13.708.582.691.689s-.584.21-.844.35a2.664,2.664,0,0,0-.909,1.133c-.016.028-.032.059-.049.1v0c-.057.112-.113.23-.168.349C40,20.811,37.372,21.311,36.684,21.4c-.117.012-.222.021-.312.028-.662.056-.719.345-.81.441-.182.191-.516.454-.44.547s.531.061.863.042c.348-.019.959.37.941.551,0,.031-.074,0-.175-.037a.6.6,0,0,0-.373-.03c-.171.056.558.4.762.6a1.756,1.756,0,0,1,.5,1.347c-.073.06-.265-.846-1.093-1.022-.121-.026-.137.093-.143.212s0,.237-.069.212c-.305-.106-.432-.848-.844-.8-.508.059-1.179.759-1.341.759s-.191-.115-.3-.115c-.251,0-.331.441-.388.441s-.127-.39.2-.585,1.346-.586,1.318-.7-.1-.125-.2-.12a.331.331,0,0,1-.261-.069c-.177-.15-.536-.359-.793-.215s-.54.46-.845.434c-.216-.017-.28-.13-.422-.09s-.126.44-.231.423c-.035-.006-.154-.432.085-.6s.728-.4.668-.644a20.02,20.02,0,0,1-2.68.966,6.509,6.509,0,0,0-2.431,1.042,14.4,14.4,0,0,0-2.208,2.11c-.256.4-.415.162-.615.134-.112-.016-.147.061-.185.138a.192.192,0,0,1-.269.125.508.508,0,0,0-.382.005.234.234,0,0,1-.252,0,.279.279,0,0,0-.343.056c-.067.055-.118.11-.162.089-.167-.076-.222.1-.54.39a3.03,3.03,0,0,1-1.078.652C21.741,28.121,21.6,27.884,21.835,27.494ZM40.6,14c0,.14.223.248.371.288s.451-.045.5-.149-.075-.342-.337-.453a.265.265,0,0,0-.105-.022A.541.541,0,0,0,40.6,14Z" transform="translate(0.001 0.507)" fill="#0055a3" stroke="rgba(0,0,0,0)" stroke-miterlimit="10" stroke-width="1"/>
</svg>
