<svg xmlns="http://www.w3.org/2000/svg" width="64.887" height="46" viewBox="0 0 64.887 46">
  <path id="miri-white" d="M62.462,44.793A1.212,1.212,0,1,1,63.677,46,1.2,1.2,0,0,1,62.462,44.793Zm.241,0a.972.972,0,1,0,.974-1A.971.971,0,0,0,62.7,44.793ZM1.248,30.47h0A.972.972,0,0,0,.363,29.9H3.4L9.523,42.584l4.559-10.773a4.616,4.616,0,0,0,.5-1.915H17.5a.977.977,0,0,0-.973.979v13.7a.976.976,0,0,0,.973.979H13.612a.976.976,0,0,0,.973-.979V32.2L9.878,43.319h0L8.745,46ZM59.322,45.551H56.4a.977.977,0,0,0,.973-.979v-13.7A.976.976,0,0,0,56.4,29.9h2.918V44.572a.975.975,0,0,0,.972.979Zm-10.073,0a4.881,4.881,0,0,1-.639-.043c-.1-.012-.2-.03-.293-.048s-.21-.045-.314-.072c-.119-.032-.237-.068-.353-.109a4.883,4.883,0,0,1-2.77-2.469l-.023-.047-.595-1.231-.845-1.752-.723-1.5-.005-.012a.926.926,0,0,0-.144-.214.965.965,0,0,0-.727-.334h.01a3.867,3.867,0,0,0,.96-.123,3.924,3.924,0,0,0,2.283-5.933,2.583,2.583,0,0,0-2.508-1.155H39.87V44.572a.976.976,0,0,0,.973.979H36.952a.975.975,0,0,0,.972-.979v-13.7a.974.974,0,0,0-.972-.978H43.8a3.917,3.917,0,0,1,2.193,7.115H46c-.011.009-.025.016-.037.025l-.015.011a5.065,5.065,0,0,1-1.816.746,1.923,1.923,0,0,1,.625.29,1.736,1.736,0,0,1,.24.2,1.905,1.905,0,0,1,.385.535l0,0s0,.008.006.013l1.869,3.871,0,0c.026.058.053.115.083.171v0a4.893,4.893,0,0,0,.658.977A4.855,4.855,0,0,0,49.248,44.9a4.8,4.8,0,0,0,1.213.5h0a4.8,4.8,0,0,0,1.211.154Zm-21.048,0H25.283a.976.976,0,0,0,.973-.979v-13.7a.975.975,0,0,0-.973-.979H28.2V44.572a.976.976,0,0,0,.973.979Zm-26.428,0H0a.976.976,0,0,0,.973-.979V40.659a4.877,4.877,0,0,0,4.863,4.892Zm62.256-.061-.364-.6h-.241v.6h-.209V44.1h.525c.326,0,.487.122.487.395a.36.36,0,0,1-.358.382l.392.611Zm-.6-.78h.25c.177,0,.335-.012.335-.226,0-.171-.155-.2-.3-.2h-.285ZM19.987,25.294c.109-.179,1.53-1.617,1.778-1.879.4-.417.765-.8.948-.957.478-.419,1.944-1.862,2.234-2.19.128-.145.672-.762,1.25-1.413.355-.491.775-.976.5-1.438a3.153,3.153,0,0,1-.564-1.076c-.034-.313-.017-.659-.346-.8-.279-.122-.808-.7-.353-.909.13-.059-.43-.431-.559-.63s-.207-.567-.078-.68c.076-.066-.154-.282-.349-.509a.784.784,0,0,1,.049-.967c.092-.131-.738-.848-.469-1.151.161-.182.243-.282.238-.438-.007-.2-.626-.589-.225-1.269.05-.085-.532-.363-.348-1.024a.254.254,0,0,1,.211-.194,2.5,2.5,0,0,1-.252-1.092c.023-.1.531,0,.558-.1s-.708-.715-.519-1.4c.023-.085.2-.072.348-.06.1.009.183.018.192,0,.023-.054-.678-1.357-.372-1.692.072-.079.217.019.337.117.1.079.176.158.186.144s-.082-.255-.112-.452c0-.017,0-.033-.007-.049v0h0a.481.481,0,0,1,.055-.334c.175-.26-.267-1.025,0-1.27.148-.137.885.911.979.911S24.477,1,24.969.656c.081-.057.26.251.434.559s.339.605.4.563c.109-.069-.314-1.024.015-1.472.143-.2.883,1.626.993,1.657S26.374.436,26.9.009c.1-.085.211.4.3.965h0a15.978,15.978,0,0,0,.783,2.911C28.817,6.31,29.749,7.3,30.319,7.7c.162.1.326.182.3-.092a.882.882,0,0,1,.025-.323c.025-.091.131-.044.218,0,.06.033.111.067.12.054.02-.034-.344-1.057-.045-1.29.047-.037.118.047.188.13s.156.189.2.108c.107-.214-.152-1.15.089-1.282.058-.032.174.162.286.355s.226.4.267.353c.117-.127-.39-1.065-.026-1.243.059-.029.145.193.228.415s.16.438.209.417c.08-.035-.1-.711.165-.973.06-.059.142.17.215.4s.13.43.159.406c.133-.115.066-1.06.368-.887a12.4,12.4,0,0,1,.233,2.119v0c.022.2.047.394.078.561,0,.014.006.027.008.041.173,1.094.618,3.234,1.654,4.023a1.416,1.416,0,0,0,.618.282,1.432,1.432,0,0,0,.256.026h.084a1.11,1.11,0,0,0,.293-.038h.005a3.98,3.98,0,0,1,.8-.148v0a2.233,2.233,0,0,1,2.126.965.6.6,0,0,1,.044.075c0,.01.006.02.01.029a.4.4,0,0,1,.045.146.416.416,0,0,0,.258.333c.272.12.648.535.632.634s-.535.193-.773.322a2.448,2.448,0,0,0-.832,1.043c-.015.026-.03.054-.045.087v0c-.052.1-.1.211-.154.322-2,4.073-4.413,4.533-5.042,4.619-.107.011-.2.019-.285.026-.606.052-.658.317-.742.405-.167.176-.473.418-.4.5s.486.056.79.039.878.34.862.507c0,.028-.068,0-.16-.034a.547.547,0,0,0-.341-.028c-.157.052.511.364.7.553a1.621,1.621,0,0,1,.455,1.239c-.067.055-.243-.778-1-.94-.11-.024-.126.086-.131.195s0,.218-.064.2c-.279-.1-.4-.78-.773-.736-.465.055-1.079.7-1.228.7s-.175-.106-.277-.106c-.23,0-.3.405-.355.405s-.116-.359.182-.539,1.232-.54,1.207-.647-.1-.115-.179-.11a.3.3,0,0,1-.239-.063c-.162-.138-.491-.33-.726-.2s-.494.423-.774.4c-.2-.016-.256-.119-.386-.083s-.115.4-.212.389c-.032-.005-.141-.4.078-.553s.667-.366.612-.592a18.267,18.267,0,0,1-2.453.889,5.943,5.943,0,0,0-2.226.958,13.211,13.211,0,0,0-2.021,1.941c-.234.367-.38.149-.563.123-.1-.015-.134.056-.169.127a.176.176,0,0,1-.246.115.463.463,0,0,0-.35,0,.214.214,0,0,1-.23,0,.255.255,0,0,0-.314.051c-.061.051-.108.1-.148.082-.153-.07-.2.093-.494.359a2.77,2.77,0,0,1-.987.6C19.9,25.871,19.768,25.653,19.987,25.294ZM37.164,12.882c0,.129.2.228.339.265s.413-.041.455-.137-.068-.314-.309-.417a.242.242,0,0,0-.1-.02A.5.5,0,0,0,37.164,12.882Z" transform="translate(0.001 0)" fill="#fff"/>
</svg>
