<?xml version="1.0" encoding="utf-8"?>
<!-- Generator: Adobe Illustrator 25.0.0, SVG Export Plug-In . SVG Version: 6.00 Build 0)  -->
<svg version="1.1" id="Layer_1" xmlns="http://www.w3.org/2000/svg" xmlns:xlink="http://www.w3.org/1999/xlink" x="0px" y="0px"
	 viewBox="0 0 28 28" style="enable-background:new 0 0 28 28;" xml:space="preserve">
<path d="M0,14C0,6.3,6.3,0,14,0c7.7,0,14,6.3,14,14C28,21.7,21.7,28,14,28C6.3,28,0,21.7,0,14z M14,25.8c6.5,0,11.8-5.3,11.8-11.8
	c0-6.5-5.3-11.8-11.8-11.8C7.5,2.2,2.2,7.5,2.2,14C2.2,20.5,7.5,25.8,14,25.8z"/>
<path d="M11.4,7.9c-0.3,0-0.6,0.2-0.8,0.5c-0.2,0.4-0.1,0.7,0.2,1c0.3,0.3,0.7,0.7,1,1c1.2,1.2,2.3,2.3,3.5,3.5
	c0.1,0.1,0.1,0.1,0,0.2c-1.5,1.5-3,3-4.5,4.5c-0.4,0.4-0.4,1.1,0.1,1.4c0.3,0.2,0.8,0.2,1.1-0.1c0.9-0.9,1.8-1.8,2.7-2.7
	c0.8-0.8,1.7-1.7,2.5-2.5c0.3-0.3,0.4-0.6,0.2-0.9c-0.1-0.1-0.1-0.3-0.2-0.4c-1.2-1.2-2.4-2.4-3.5-3.6c-0.5-0.5-1.1-1.1-1.6-1.6
	C11.8,8,11.6,7.9,11.4,7.9z"/>
</svg>
