<svg xmlns="http://www.w3.org/2000/svg" width="16.4" height="16.4" viewBox="0 0 16.4 16.4">
  <path id="phone-icon" d="M-17820.031-4230.272a16.314,16.314,0,0,1-5.922-3.774,16.3,16.3,0,0,1-3.773-5.922,4.427,4.427,0,0,1-.227-2.176,4.529,4.529,0,0,1,.771-1.931,4.55,4.55,0,0,1,1.561-1.391,4.457,4.457,0,0,1,2.133-.533.5.5,0,0,1,.49.4l.785,3.663a.5.5,0,0,1-.135.458l-1.342,1.341a13.161,13.161,0,0,0,5.832,5.833l1.342-1.341a.5.5,0,0,1,.457-.136l3.664.785a.5.5,0,0,1,.395.489,4.458,4.458,0,0,1-.533,2.133,4.558,4.558,0,0,1-1.391,1.562,4.531,4.531,0,0,1-1.932.771,4.338,4.338,0,0,1-.645.048A4.464,4.464,0,0,1-17820.031-4230.272Zm-8.332-13.229a3.448,3.448,0,0,0-.424,3.191,15.168,15.168,0,0,0,9.1,9.1,3.444,3.444,0,0,0,3.191-.424,3.465,3.465,0,0,0,1.477-2.477l-2.979-.638-1.4,1.4a.5.5,0,0,1-.566.1,14.168,14.168,0,0,1-6.779-6.779.5.5,0,0,1,.1-.566l1.4-1.4-.639-2.979A3.465,3.465,0,0,0-17828.363-4243.5Zm13.363,5.5a7.008,7.008,0,0,0-7-7,.5.5,0,0,1-.5-.5.5.5,0,0,1,.5-.5,7.948,7.948,0,0,1,5.656,2.343A7.946,7.946,0,0,1-17814-4238a.5.5,0,0,1-.5.5A.5.5,0,0,1-17815-4238Zm-2,0a5,5,0,0,0-5-5,.5.5,0,0,1-.5-.5.5.5,0,0,1,.5-.5,6.006,6.006,0,0,1,6,6,.5.5,0,0,1-.5.5A.5.5,0,0,1-17817-4238Zm-2,0a3,3,0,0,0-3-3,.5.5,0,0,1-.5-.5.5.5,0,0,1,.5-.5,4,4,0,0,1,4,4,.5.5,0,0,1-.5.5A.5.5,0,0,1-17819-4238Z" transform="translate(17830.201 4246.199)" fill="#3580ff" stroke="#3580ff" stroke-width="0.4"/>
</svg>
