<?xml version="1.0" encoding="utf-8"?>
<!-- Generator: Adobe Illustrator 25.0.0, SVG Export Plug-In . SVG Version: 6.00 Build 0)  -->
<svg version="1.1" id="Layer_1" xmlns="http://www.w3.org/2000/svg" xmlns:xlink="http://www.w3.org/1999/xlink" x="0px" y="0px"
	 viewBox="0 0 28 28" style="enable-background:new 0 0 28 28;" xml:space="preserve">
<path d="M14,28C6.3,28,0,21.7,0,14.1C0,6.3,6.3,0,14,0c7.7,0,14,6.3,14,14C28,21.7,21.7,28,14,28z M25.8,14
	c0-6.5-5.3-11.8-11.8-11.8C7.5,2.2,2.2,7.5,2.2,14c0,6.5,5.3,11.8,11.8,11.8C20.5,25.8,25.8,20.5,25.8,14z"/>
<path d="M16.1,7.9c0.3,0,0.6,0.2,0.8,0.5c0.2,0.4,0.1,0.7-0.2,1c-0.3,0.3-0.7,0.7-1,1c-1.2,1.2-2.3,2.3-3.5,3.5
	c-0.1,0.1-0.1,0.1,0,0.2c1.5,1.5,3,3,4.5,4.5c0.4,0.4,0.4,1.1-0.1,1.4c-0.3,0.2-0.8,0.2-1.1-0.1c-0.9-0.9-1.8-1.8-2.7-2.7
	c-0.8-0.8-1.7-1.7-2.5-2.5C10,14.4,9.9,14,10,13.7c0.1-0.1,0.1-0.3,0.2-0.4c1.2-1.2,2.4-2.4,3.5-3.6c0.5-0.5,1.1-1.1,1.6-1.6
	C15.6,8,15.8,7.9,16.1,7.9z"/>
</svg>
