<svg xmlns="http://www.w3.org/2000/svg" width="16.402" height="16.4" viewBox="0 0 16.402 16.4">
  <g id="pushpin" transform="translate(0.202 0.2)">
    <path id="Path_8650" data-name="Path 8650" d="M15.5,3.6,12.4.5A1.719,1.719,0,0,0,9.972.5L9.53.945a.469.469,0,0,0,0,.663l.773.773L8.645,4.04a4.322,4.322,0,0,0-4.539,1l-.543.543a.469.469,0,0,0,0,.663L5.552,8.237,1.817,11.973A6.487,6.487,0,0,0,.007,15.45a.469.469,0,0,0,.543.543,6.488,6.488,0,0,0,3.477-1.81l3.735-3.735,1.989,1.989a.469.469,0,0,0,.663,0l.543-.543a4.322,4.322,0,0,0,1-4.539L13.618,5.7l.773.773a.469.469,0,0,0,.663,0l.442-.442a1.719,1.719,0,0,0,0-2.431ZM3.364,13.52a5.552,5.552,0,0,1-2.258,1.374A5.552,5.552,0,0,1,2.48,12.636L6.215,8.9l.884.884Zm6.93-2.289-.211.211L4.558,5.917l.211-.211a3.4,3.4,0,0,1,3.718-.721l2.527,2.527A3.4,3.4,0,0,1,10.293,11.23Zm1.115-4.65L9.419,4.591l1.547-1.547,1.989,1.989Zm3.425-1.215-.11.11-4.2-4.2.11-.11a.782.782,0,0,1,1.1,0L14.833,4.26a.782.782,0,0,1,0,1.1Z" transform="translate(0 0)" fill="#3580ff" stroke="#3580ff" stroke-width="0.4"/>
  </g>
</svg>
