<svg xmlns="http://www.w3.org/2000/svg" width="15.001" height="24" viewBox="0 0 15.001 24">
  <path id="sale-off" d="M-5730.75-4222a2.253,2.253,0,0,1-2.25-2.25V-4235.6a3,3,0,0,1,1.036-2.268l2.281-1.977A4.506,4.506,0,0,1-5725.5-4246a4.5,4.5,0,0,1,4.183,6.158l2.282,1.977A3,3,0,0,1-5718-4235.6v11.348a2.254,2.254,0,0,1-2.25,2.25Zm-.231-14.731a1.5,1.5,0,0,0-.518,1.134v11.348a.751.751,0,0,0,.75.75h10.5a.751.751,0,0,0,.75-.75V-4235.6a1.5,1.5,0,0,0-.517-1.134c-1.244-1.078-3.214-2.786-4-3.465a2.266,2.266,0,0,0-2.967,0l-.774.67a3.01,3.01,0,0,0,1.514.931.751.751,0,0,1,.744-.655.749.749,0,0,1,.75.75v1.5a.751.751,0,0,1-.75.751.75.75,0,0,1-.75-.751v-.063a4.516,4.516,0,0,1-2.642-1.479Zm7.948-4.6.477.413a3,3,0,0,0-2.942-3.583,3,3,0,0,0-2.942,3.583l.476-.413a3.754,3.754,0,0,1,2.466-.92A3.757,3.757,0,0,1-5723.034-4241.33Zm-1.406,14.221a1.59,1.59,0,0,1,1.59-1.591,1.591,1.591,0,0,1,1.59,1.591,1.591,1.591,0,0,1-1.59,1.59A1.59,1.59,0,0,1-5724.44-4227.109Zm-4.277.148,5.25-6.75a.75.75,0,0,1,1.053-.131.75.75,0,0,1,.131,1.053l-5.25,6.75a.75.75,0,0,1-.593.289A.75.75,0,0,1-5728.717-4226.961Zm-1.023-5.449a1.59,1.59,0,0,1,1.59-1.591,1.591,1.591,0,0,1,1.59,1.591,1.59,1.59,0,0,1-1.59,1.59A1.589,1.589,0,0,1-5729.74-4232.41Z" transform="translate(5733 4246)" fill="#3580ff"/>
</svg>
