<svg xmlns="http://www.w3.org/2000/svg" width="24.5" height="18.106" viewBox="0 0 24.5 18.106">
  <g id="scan" transform="translate(343.756 139.769)">
    <path id="Path_8620" data-name="Path 8620" d="M-320.091-131.741a2.1,2.1,0,0,0-.421-.026h-10.965a.162.162,0,0,0-.031,0h-8.783c-.8,0-1.591,0-2.387,0a1.044,1.044,0,0,0-1.072.936,1.054,1.054,0,0,0,.791,1.126,1.472,1.472,0,0,0,.429.036l20.168,0h.659q.7,0,1.4-.005a1.044,1.044,0,0,0,1.043-.936A1.053,1.053,0,0,0-320.091-131.741Z" fill="#3580ff"/>
    <path id="Path_8621" data-name="Path 8621" d="M-339.506-132.867h.005a1.07,1.07,0,0,0,1.045-1.171v-3.627h3.627a1.071,1.071,0,0,0,1.171-1.043,1,1,0,0,0-.286-.728,1.214,1.214,0,0,0-.876-.329q-2.286,0-4.571,0a1.062,1.062,0,0,0-1.166,1.164q0,2.286,0,4.571a1.218,1.218,0,0,0,.329.877A1,1,0,0,0-339.506-132.867Z" fill="#3580ff"/>
    <path id="Path_8622" data-name="Path 8622" d="M-328.256-137.667q1.17,0,2.339,0h1.358v1.083c0,.875,0,1.748,0,2.622a1.044,1.044,0,0,0,1.029,1.094h.022a1.028,1.028,0,0,0,.723-.29,1.114,1.114,0,0,0,.324-.8q.006-2.358,0-4.716a1.037,1.037,0,0,0-1.1-1.088q-2.358-.008-4.716,0a1.048,1.048,0,0,0-1.086,1.038,1.029,1.029,0,0,0,.291.74A1.12,1.12,0,0,0-328.256-137.667Z" fill="#3580ff"/>
    <path id="Path_8623" data-name="Path 8623" d="M-334.8-123.77h-.009c-.932,0-1.863,0-2.811,0h-.835v-1.091q0-1.318,0-2.635a1.086,1.086,0,0,0-.314-.776,1.037,1.037,0,0,0-.734-.3h-.008a1.032,1.032,0,0,0-1.04,1.057q-.01,2.387,0,4.773a1.017,1.017,0,0,0,1,1.062c.756.006,1.647.011,2.6.011.739,0,1.514,0,2.291-.012a1,1,0,0,0,.882-.534,1.071,1.071,0,0,0-.052-1.087A1.059,1.059,0,0,0-334.8-123.77Z" fill="#3580ff"/>
    <path id="Path_8624" data-name="Path 8624" d="M-323.5-128.566h-.007a1.016,1.016,0,0,0-.723.288,1.181,1.181,0,0,0-.326.844c0,.53,0,1.06,0,1.591v2.074h-1.219c-.818,0-1.638,0-2.455,0a1.046,1.046,0,0,0-1.123,1.03,1.013,1.013,0,0,0,.286.74,1.159,1.159,0,0,0,.837.33h2.238q1.209,0,2.419,0a1.054,1.054,0,0,0,1.118-1.126q0-2.316,0-4.629A1.055,1.055,0,0,0-323.5-128.566Z" fill="#3580ff"/>
  </g>
</svg>
