<svg xmlns="http://www.w3.org/2000/svg" width="14.399" height="14.4" viewBox="0 0 14.399 14.4">
  <g id="scan-icon" transform="translate(-539.8 -1336.799)">
    <path id="Union_203" data-name="Union 203" d="M1493.619-7530a.532.532,0,0,1-.542-.534.538.538,0,0,1,.576-.54q2,0,4,0h.269v-1.529c0-.916,0-1.833,0-2.749a.533.533,0,0,1,.788-.5.507.507,0,0,1,.286.468c0,1.461.009,2.922,0,4.383a1.046,1.046,0,0,1-1.011,1q-1.038.007-2.076.006Q1494.763-7530,1493.619-7530Zm-7.517,0a1.072,1.072,0,0,1-1.1-1.11q0-2.095,0-4.19a.549.549,0,0,1,.535-.621.55.55,0,0,1,.542.614q0,2,0,4v.231h1.759c.839,0,1.679,0,2.518,0a.542.542,0,0,1,.562.475.539.539,0,0,1-.4.582.831.831,0,0,1-.209.019H1486.1Zm3.772-3.769a.536.536,0,0,1-.492-.805.505.505,0,0,1,.458-.27q2.162,0,4.323,0a.531.531,0,0,1,.528.548.535.535,0,0,1-.552.525c-.5,0-1.008,0-1.512,0h-1.908Q1490.3-7533.769,1489.874-7533.771Zm6.372-2.689c-1.006,0-2.011,0-3.017,0H1492q-2.095,0-4.189,0a1.019,1.019,0,0,1-.248-.019.538.538,0,0,1-.4-.578.535.535,0,0,1,.538-.479c.512-.006,1.025,0,1.537,0h7.014a.539.539,0,0,1,.518.813.553.553,0,0,1-.517.265Zm1.907-1.716a.576.576,0,0,1-.234-.519q0-2,0-4v-.227h-.226q-2.009,0-4.018,0a.553.553,0,0,1-.529-.282.533.533,0,0,1,.488-.795c.534,0,1.068,0,1.6,0h2.647a1.078,1.078,0,0,1,1.115,1.116q0,2.115,0,4.229a.538.538,0,0,1-.3.518.521.521,0,0,1-.241.062A.531.531,0,0,1,1498.153-7538.177Zm-12.815.056a.51.51,0,0,1-.332-.476c-.009-.3,0-.6,0-.9q0-1.682,0-3.364a1.082,1.082,0,0,1,1.135-1.136q2.086,0,4.171,0a.58.58,0,0,1,.482.191.5.5,0,0,1,.089.556.515.515,0,0,1-.5.33c-.464,0-.929,0-1.393,0h-2.721c-.056,0-.112.005-.188.009v.236q0,1.989,0,3.979a.586.586,0,0,1-.188.483.53.53,0,0,1-.344.138A.531.531,0,0,1,1485.338-7538.121Zm6.657-1.031h0q-1.037,0-2.075,0a.547.547,0,0,1-.61-.544.545.545,0,0,1,.6-.532h4.169a.549.549,0,0,1,.61.546.546.546,0,0,1-.6.532h-2.094Z" transform="translate(-945 8881)" fill="#3580ff" stroke="#3580ff" stroke-miterlimit="10" stroke-width="0.4"/>
  </g>
</svg>
