<svg xmlns="http://www.w3.org/2000/svg" width="24.001" height="24" viewBox="0 0 24.001 24">
  <path id="score" d="M-5721.017-4222A12.021,12.021,0,0,1-5733-4234.118a12.029,12.029,0,0,1,12.019-11.88A12.018,12.018,0,0,1-5709-4233.879,12.031,12.031,0,0,1-5720.911-4222Zm-10.11-12A10.121,10.121,0,0,0-5721-4223.871,10.12,10.12,0,0,0-5710.872-4234,10.117,10.117,0,0,0-5721-4244.126,10.118,10.118,0,0,0-5731.127-4234Zm10.591,6.2c-.415-.018-.832,0-1.314,0,0-.374-.02-.684.006-.988.027-.341-.082-.466-.439-.551a9.889,9.889,0,0,1-1.571-.6c-.089-.04-.2-.223-.177-.3.155-.5.345-.984.5-1.4a18.934,18.934,0,0,0,1.889.649,2,2,0,0,0,1.063-.1.921.921,0,0,0,.324-1.571,4.136,4.136,0,0,0-.917-.574c-.475-.25-.985-.44-1.444-.717a2.387,2.387,0,0,1-1.265-2.355,2.471,2.471,0,0,1,1.713-2.237c.337-.125.463-.283.424-.637a9.89,9.89,0,0,1-.007-1.013c.5,0,.955-.011,1.409.013.076,0,.194.16.2.256a5.226,5.226,0,0,1,.009.806c-.012.229.069.315.3.377.452.121.888.3,1.33.461.232.083.3.217.193.466-.183.429-.331.872-.491,1.3a8.013,8.013,0,0,0-1.207-.483,4.163,4.163,0,0,0-1.234-.063.718.718,0,0,0-.659.62.746.746,0,0,0,.35.839c.38.226.786.409,1.179.611.359.185.732.347,1.072.56a2.614,2.614,0,0,1,1.3,2.669,2.591,2.591,0,0,1-1.777,2.249c-.37.141-.473.317-.435.671.023.227-.008.459.007.686.017.242-.052.362-.3.362Zm-7.914-6.308a1.436,1.436,0,0,1,1.466-1.446,1.44,1.44,0,0,1,1.447,1.429,1.477,1.477,0,0,1-1.453,1.478H-5727A1.455,1.455,0,0,1-5728.45-4234.1Zm11.988.03a1.45,1.45,0,0,1,1.441-1.476,1.429,1.429,0,0,1,1.471,1.439,1.464,1.464,0,0,1-1.456,1.467A1.469,1.469,0,0,1-5716.461-4234.071Z" transform="translate(5733 4246)" fill="#3580ff"/>
</svg>
