<svg xmlns="http://www.w3.org/2000/svg" width="10.613" height="14" viewBox="0 0 10.613 14">
  <path id="sort-icon" d="M-5469.259,2108.348c-.005-.685,0-1.369,0-2.053q0-3.159,0-6.317v-.261a2.333,2.333,0,0,1-1.591-1.648,2.409,2.409,0,0,1,1.537-2.965,2.27,2.27,0,0,1,2.807,1.515,2.422,2.422,0,0,1-1.389,3.026c-.161.059-.177.145-.176.291q0,4.174,0,8.348a.663.663,0,0,1-.387.677.573.573,0,0,1-.208.04A.623.623,0,0,1-5469.259,2108.348Zm-.493-10.961a1.113,1.113,0,0,0,1.078,1.162,1.1,1.1,0,0,0,1.092-1.122,1.119,1.119,0,0,0-1.075-1.166h-.012A1.123,1.123,0,0,0-5469.752,2097.387Zm-5.1,11.592a.567.567,0,0,1-.454-.472,1.566,1.566,0,0,1-.021-.311c0-1.212,0-2.425,0-3.638a.283.283,0,0,0-.2-.324,2.35,2.35,0,0,1-1.478-2.212,2.354,2.354,0,0,1,1.472-2.239.283.283,0,0,0,.206-.32c-.006-1.242,0-2.485,0-3.727,0-.445.273-.745.638-.715a.605.605,0,0,1,.549.647c.006.647,0,1.294,0,1.942h0c0,.633,0,1.265,0,1.9a.228.228,0,0,0,.168.257,2.367,2.367,0,0,1,1.519,2.251,2.369,2.369,0,0,1-1.51,2.235.243.243,0,0,0-.175.276q.005,1.9,0,3.794a.608.608,0,0,1-.575.675A.62.62,0,0,1-5474.849,2108.979Zm-.96-6.981a1.118,1.118,0,0,0,1.09,1.152,1.11,1.11,0,0,0,1.084-1.13,1.112,1.112,0,0,0-1.086-1.151h0A1.115,1.115,0,0,0-5475.809,2102Z" transform="translate(5477 -2095)" fill="#15489b"/>
</svg>
