<svg xmlns="http://www.w3.org/2000/svg" width="15.855" height="16.2" viewBox="0 0 15.855 16.2">
  <g id="tax-icon" transform="translate(-149.9 -1760.4)">
    <path id="tax-icon-2" data-name="tax-icon" d="M19.618,6.9H18.9V.471A.471.471,0,0,0,18.425,0H5.971A.471.471,0,0,0,5.5.471V12.525a1.574,1.574,0,0,0,1.551,1.568H9.8v1.436a.471.471,0,0,0,.471.471H20.684a.471.471,0,0,0,.471-.471V8.439A1.539,1.539,0,0,0,19.618,6.9ZM6.441.941H17.955V6.9H9.206A1.533,1.533,0,0,0,7.671,8.373q0,.01,0,.02v4.132a.615.615,0,1,1-1.229,0V.941ZM8.48,13.152a1.569,1.569,0,0,0,.132-.627V8.4A.6.6,0,0,1,9.8,8.439v4.713Zm11.734,1.907H10.746V8.439h0a1.544,1.544,0,0,0-.12-.6h8.993a.6.6,0,0,1,.6.6Z" transform="translate(144.5 1760.5)" fill="#3580ff" stroke="#3580ff" stroke-width="0.2"/>
    <path id="Path_8859" data-name="Path 8859" d="M68.566,73.025h.479v1.838a.471.471,0,0,0,.941,0V73.025h.479a.471.471,0,0,0,0-.941h-1.9a.471.471,0,0,0,0,.941Z" transform="translate(83.869 1690.677)" fill="#3580ff" stroke="#3580ff" stroke-width="0.2"/>
    <path id="Path_8860" data-name="Path 8860" d="M169.848,75.335a.471.471,0,0,0,.471-.471v-.272h.959v.272a.471.471,0,1,0,.941,0V73.506a1.421,1.421,0,1,0-2.841,0v1.359A.471.471,0,0,0,169.848,75.335Zm.95-2.309a.48.48,0,0,1,.479.479v.145h-.959v-.145A.48.48,0,0,1,170.8,73.026Z" transform="translate(-14.236 1690.676)" fill="#3580ff" stroke="#3580ff" stroke-width="0.2"/>
    <path id="Path_8861" data-name="Path 8861" d="M279.512,75.225a.471.471,0,0,0,.662-.064l.587-.713.587.713a.471.471,0,0,0,.727-.6l-.7-.855.7-.855a.471.471,0,0,0-.727-.6l-.587.713-.587-.713a.471.471,0,1,0-.727.6l.7.855-.7.855A.471.471,0,0,0,279.512,75.225Z" transform="translate(-120.749 1690.679)" fill="#3580ff" stroke="#3580ff" stroke-width="0.2"/>
    <path id="Path_8862" data-name="Path 8862" d="M209.553,315h-3.242a.471.471,0,0,0,0,.941h3.242a.471.471,0,0,0,0-.941Z" transform="translate(-49.556 1455.382)" fill="#3580ff" stroke="#3580ff" stroke-width="0.2"/>
    <path id="Path_8863" data-name="Path 8863" d="M209.553,387h-3.242a.471.471,0,0,0,0,.941h3.242a.471.471,0,0,0,0-.941Z" transform="translate(-49.556 1385.641)" fill="#3580ff" stroke="#3580ff" stroke-width="0.2"/>
    <path id="Path_8864" data-name="Path 8864" d="M372.893,315H371.3a.471.471,0,1,0,0,.941h1.59a.471.471,0,0,0,0-.941Z" transform="translate(-209.372 1455.382)" fill="#3580ff" stroke="#3580ff" stroke-width="0.2"/>
    <path id="Path_8865" data-name="Path 8865" d="M372.893,387H371.3a.471.471,0,1,0,0,.941h1.59a.471.471,0,0,0,0-.941Z" transform="translate(-209.372 1385.641)" fill="#3580ff" stroke="#3580ff" stroke-width="0.2"/>
  </g>
</svg>
