<svg xmlns="http://www.w3.org/2000/svg" width="15.757" height="19" viewBox="0 0 15.757 19">
  <path id="user" d="M9735-4396v-.872a7.385,7.385,0,0,1,7.378-7.378,7.388,7.388,0,0,1,7.379,7.378v.872Zm1.814-1.746h11.128a5.644,5.644,0,0,0-5.564-4.758A5.637,5.637,0,0,0,9736.816-4397.745Zm1.082-11.772a4.485,4.485,0,0,1,4.481-4.482,4.485,4.485,0,0,1,4.481,4.482,4.487,4.487,0,0,1-4.481,4.481A4.485,4.485,0,0,1,9737.9-4409.517Zm1.745,0a2.74,2.74,0,0,0,2.736,2.736,2.74,2.74,0,0,0,2.736-2.736,2.738,2.738,0,0,0-2.736-2.736A2.737,2.737,0,0,0,9739.644-4409.517Z" transform="translate(-9734.502 4414.499)" stroke="rgba(0,0,0,0)" stroke-miterlimit="10" stroke-width="1"/>
</svg>
