<svg xmlns="http://www.w3.org/2000/svg" width="63" height="25" viewBox="0 0 63 25">
  <g id="visa" transform="translate(-447 -592)">
    <rect id="Rectangle_1296" data-name="Rectangle 1296" width="63" height="25" transform="translate(447 592)" fill="none"/>
    <g id="Group_9677" data-name="Group 9677" transform="translate(-32 -55)">
      <g id="Group_8521" data-name="Group 8521" transform="translate(487.045 651)">
        <path id="Path_8708" data-name="Path 8708" d="M175.483,192.3l2.866-16.925h4.64L180.124,192.3Z" transform="translate(-160.191 -175.1)" fill="#293688"/>
        <path id="Path_8709" data-name="Path 8709" d="M235.169,174.357a12.051,12.051,0,0,0-4.16-.71c-4.586,0-7.817,2.3-7.844,5.586-.025,2.431,2.306,3.788,4.067,4.6,1.806.828,2.414,1.359,2.4,2.1-.011,1.134-1.443,1.653-2.777,1.653a9.793,9.793,0,0,1-4.369-.888l-.6-.27-.652,3.789a14.761,14.761,0,0,0,5.17.9c4.878,0,8.046-2.269,8.081-5.783.018-1.925-1.219-3.39-3.9-4.6-1.622-.782-2.616-1.3-2.605-2.1,0-.7.842-1.456,2.658-1.456a8.605,8.605,0,0,1,3.474.648l.415.2.631-3.668Z" transform="translate(-198.716 -173.647)" fill="#293688"/>
        <path id="Path_8710" data-name="Path 8710" d="M309.97,175.373a2.306,2.306,0,0,0-2.4,1.441L300.689,192.3H305.6l.955-2.594h5.87l.545,2.594h4.368l-3.821-16.925H309.97Zm-2.109,10.946c.383-.975,1.848-4.731,1.848-4.731-.027.044.381-.979.616-1.615l.314,1.458s.888,4.04,1.074,4.887h-3.852Z" transform="translate(-265.606 -175.1)" fill="#293688"/>
        <path id="Path_8711" data-name="Path 8711" d="M85.569,186.975l-.409-2.32a13.222,13.222,0,0,0-6.421-7.1l4.1,14.741h4.914l7.37-16.925H90.21Z" transform="translate(-78.739 -175.1)" fill="#293688"/>
      </g>
      <path id="Path_8712" data-name="Path 8712" d="M46.823,175.373v.273c5.823,1.4,9.866,4.941,11.466,9.008l-1.683-7.837a2,2,0,0,0-2.139-1.444Z" transform="translate(435.177 475.9)" fill="#f7981d"/>
    </g>
  </g>
</svg>
