<svg xmlns="http://www.w3.org/2000/svg" xmlns:xlink="http://www.w3.org/1999/xlink" width="68" height="68" viewBox="0 0 68 68">
  <defs>
    <filter id="Ellipse_69" x="0" y="0" width="68" height="68" filterUnits="userSpaceOnUse">
      <feOffset dy="3" input="SourceAlpha"/>
      <feGaussianBlur stdDeviation="3" result="blur"/>
      <feFlood flood-color="#15489b" flood-opacity="0.102"/>
      <feComposite operator="in" in2="blur"/>
      <feComposite in="SourceGraphic"/>
    </filter>
  </defs>
  <g id="yu-share" transform="translate(-991 -7512)">
    <g transform="matrix(1, 0, 0, 1, 991, 7512)" filter="url(#Ellipse_69)">
      <circle id="Ellipse_69-2" data-name="Ellipse 69" cx="25" cy="25" r="25" transform="translate(9 6)" fill="#3580ff" opacity="0.1"/>
    </g>
    <path id="Union_249" data-name="Union 249" d="M9747.02-4395.821c-.244,0-5.988-.089-7.819-.264l-.056-.008c-.058-.01-.142-.02-.239-.031a3.982,3.982,0,0,1-2.673-1.2,5.432,5.432,0,0,1-1.055-2.751v-.012c-.007-.081-.177-1.995-.177-3.916v-1.8c0-1.921.17-3.835.177-3.915l0-.024a5.755,5.755,0,0,1,1.049-2.735,3.809,3.809,0,0,1,2.572-1.25l.112-.014.042,0c3.2-.231,7.993-.262,8.041-.262H9747c.048,0,4.839.031,8.012.262l.042,0,.119.014a3.9,3.9,0,0,1,2.587,1.213,5.484,5.484,0,0,1,1.058,2.785l0,.011c.007.081.176,1.994.176,3.915v1.8c0,1.921-.169,3.834-.176,3.915l0,.024a5.751,5.751,0,0,1-1.05,2.735,3.718,3.718,0,0,1-2.549,1.219l-.135.016-.042,0c-3.173.23-7.964.262-8.013.262h-.014Zm-7.943-16.514-.114.014a2.427,2.427,0,0,0-1.7.8,4.379,4.379,0,0,0-.689,1.949c-.016.171-.17,2-.17,3.777v1.8c0,1.8.159,3.656.17,3.783a4.049,4.049,0,0,0,.677,1.929l.013.014a2.632,2.632,0,0,0,1.8.751c.1.012.2.023.293.038,1.776.165,7.436.252,7.674.255.213,0,4.823-.036,7.892-.257l.15-.017a2.312,2.312,0,0,0,1.66-.77,4.476,4.476,0,0,0,.689-1.948c.015-.168.17-2,.17-3.777v-1.8c0-1.807-.16-3.664-.17-3.784a4.125,4.125,0,0,0-.677-1.957l-.006-.006a2.516,2.516,0,0,0-1.723-.78l-.124-.015c-3.085-.223-7.728-.256-7.895-.257S9742.189-4412.558,9739.076-4412.335Zm5.349,10.893a.965.965,0,0,1-.474-.836v-5.752a.964.964,0,0,1,.478-.838.964.964,0,0,1,.964-.017l5.3,2.9a.975.975,0,0,1,.507.858.975.975,0,0,1-.513.854l-5.3,2.851a.974.974,0,0,1-.461.117A.972.972,0,0,1,9744.425-4401.442Zm.933-1.56,3.963-2.131-3.963-2.168Z" transform="translate(-8722 11947.999)" fill="#3580ff" stroke="#3580ff" stroke-width="0.4"/>
  </g>
</svg>
