<svg xmlns="http://www.w3.org/2000/svg" width="67" height="25" viewBox="0 0 67 25">
  <g id="zalopay" transform="translate(-749 -592)">
    <rect id="Rectangle_1299" data-name="Rectangle 1299" width="67" height="25" transform="translate(749 592)" fill="none"/>
    <g id="Group_9681" data-name="Group 9681" transform="translate(-8 -55)">
      <path id="Path_8440" data-name="Path 8440" d="M-5111,308.771a2.221,2.221,0,0,1,1.968-.82c1.963.025,3.926,0,5.89.011a5.47,5.47,0,0,1,.94.075,1.245,1.245,0,0,1,.981,1.844,9.315,9.315,0,0,1-1.312,1.989q-2.112,2.722-4.231,5.438c-.114.146-.208.307-.389.576h2.978c.63,0,1.261-.008,1.891,0,.99.017,1.449.4,1.477,1.207.03.87-.388,1.312-1.406,1.363-.943.047-1.89.019-2.835.02q-2,0-4,0a2.091,2.091,0,0,1-1.952-.819v-1.161c1.911-2.721,4.082-5.247,6.1-8-1.44,0-2.769-.017-4.1.006a2.126,2.126,0,0,1-2.006-.86Z" transform="translate(5871 345.448)" fill="#0569fe"/>
      <path id="Path_8441" data-name="Path 8441" d="M-5033.543,336.155c0,1.017-.012,2.034,0,3.05a1.209,1.209,0,0,1-.785,1.258,1.222,1.222,0,0,1-1.493-.407c-.116-.138-.13-.389-.466-.157a3.609,3.609,0,0,1-5.45-1.374,4.931,4.931,0,0,1,1.048-6.075,3.435,3.435,0,0,1,4.344-.163c.215.151.306.21.5-.038a1.222,1.222,0,0,1,1.564-.365,1.287,1.287,0,0,1,.737,1.367C-5033.562,334.218-5033.543,335.187-5033.543,336.155Zm-2.589-.128a1.994,1.994,0,0,0-.986-1.848,1.625,1.625,0,0,0-1.727.056,2.46,2.46,0,0,0,.012,3.782,1.693,1.693,0,0,0,2.177-.318A2.432,2.432,0,0,0-5036.132,336.027Z" transform="translate(5812.312 325.215)" fill="#0368fe"/>
      <path id="Path_8442" data-name="Path 8442" d="M-4945.242,336.088a4.246,4.246,0,0,1-4.3,4.548,4.289,4.289,0,0,1-4.479-4.463,4.325,4.325,0,0,1,4.391-4.573A4.29,4.29,0,0,1-4945.242,336.088Zm-2.547.017c-.029-.157-.061-.371-.108-.582a1.724,1.724,0,0,0-2.086-1.5,2.156,2.156,0,0,0-1.392,2.722,1.8,1.8,0,0,0,2.114,1.5,1.825,1.825,0,0,0,.529-.221A2.312,2.312,0,0,0-4947.789,336.1Z" transform="translate(5736.816 325.206)" fill="#0268fe"/>
      <path id="Path_8443" data-name="Path 8443" d="M-4974.292,299.56a1.3,1.3,0,0,0-1.432-1.021,1.285,1.285,0,0,0-1.133,1.37q-.023,5.532,0,11.063a1.261,1.261,0,0,0,1.034,1.368,1.249,1.249,0,0,0,1.514-.891C-4974.213,307.486-4974.25,303.523-4974.292,299.56Z" transform="translate(5756.348 353.501)" fill="#0368fe"/>
      <g id="Group_7389" data-name="Group 7389" transform="translate(792.315 651)">
        <path id="Path_8444" data-name="Path 8444" d="M-4860.308,325.6c-.529-.028-1.062.008-1.592.015-.208.05-.141.223-.141.35,0,.892.012,1.784.019,2.676v.3a.1.1,0,0,0,.024.133,4.214,4.214,0,0,0,1.7.075,1.654,1.654,0,0,0,1.7-1.772A1.709,1.709,0,0,0-4860.308,325.6Z" transform="translate(4865.849 -320.639)" fill="#04c977"/>
        <path id="Path_8445" data-name="Path 8445" d="M-4802.168,348.348a1.879,1.879,0,0,0-1.816,2.1,1.942,1.942,0,0,0,1.792,2.148,1.909,1.909,0,0,0,1.806-2.127A1.859,1.859,0,0,0-4802.168,348.348Z" transform="translate(4816.231 -340.091)" fill="#04c977"/>
        <path id="Path_8446" data-name="Path 8446" d="M-4860.529,291.906a1.426,1.426,0,0,0-.683-.357,6.316,6.316,0,0,0-1.251-.069c-.883-.022-1.768-.01-2.652,0-.595,0-1.19.008-1.785.009h-20.218c-.839.213-1.03.832-1.029,1.6q.007,6.967,0,13.934c0,1.406.5,1.9,1.937,1.9h19.018a1.344,1.344,0,0,1-.075-1.469,13.85,13.85,0,0,1,.6-1.314,1.338,1.338,0,0,0,.042-1.294q-1.192-2.87-2.322-5.764a1.036,1.036,0,0,1,.59-1.483,1.141,1.141,0,0,1,1.51.617,4.907,4.907,0,0,1,.222.533c.461,1.262.919,2.526,1.406,3.865.1-.2.178-.319.23-.45.495-1.255.975-2.515,1.481-3.766a1.24,1.24,0,0,1,1.627-.8c.694.272.895.8.581,1.6-.229.583-.485,1.155-.728,1.732l-3.356,7.991c1.157,0,2.273-.03,3.386.009a1.817,1.817,0,0,0,1.955-1.163V292.927A1.439,1.439,0,0,0-4860.529,291.906Zm-21.852,9.988c-.6.027-1.209.027-1.813.04-.122-.014-.136.059-.126.152s0,.2,0,.3h0v2.605h0c-.159,1.011-.576,1.394-1.446,1.327-.743-.057-1.144-.547-1.146-1.477q-.013-4.751,0-9.5c0-1.081.426-1.493,1.509-1.488a24.505,24.505,0,0,1,3.483.059,3.931,3.931,0,0,1,3.672,4.24A4.023,4.023,0,0,1-4882.38,301.894Zm12.718,2.933a1.319,1.319,0,0,1-.865,1.37,1.213,1.213,0,0,1-1.474-.454c-.107-.127-.129-.319-.418-.146a3.771,3.771,0,0,1-5.88-2.258,4.593,4.593,0,0,1,3.008-5.947,2.981,2.981,0,0,1,2.738.558c.285.242.388.191.608-.063a1.187,1.187,0,0,1,1.447-.326,1.261,1.261,0,0,1,.83,1.244c.015,1.04,0,2.08,0,3.121C-4869.663,302.892-4869.665,303.859-4869.663,304.827Z" transform="translate(4888.147 -291.467)" fill="#04c977"/>
      </g>
    </g>
  </g>
</svg>
